<svg width="118" height="64" viewBox="0 0 118 64" fill="none" xmlns="http://www.w3.org/2000/svg">
<path fill-rule="evenodd" clip-rule="evenodd" d="M46.6625 29.0954C47.029 28.9729 47.4932 29.0464 47.6398 29.4141L48.1528 30.8603C48.275 31.2279 47.9574 31.5711 47.5909 31.7182L45.6609 32.38C45.2944 32.5025 44.8302 32.429 44.6837 32.0613L44.1706 30.5906C44.0485 30.223 44.3661 29.8798 44.7325 29.7327L46.6625 29.0954ZM47.7863 32.0858C48.1528 31.9878 48.5926 32.0368 48.7636 32.4045L49.2766 33.8507C49.3743 34.2429 49.0567 34.5615 48.7147 34.7086L48.2505 34.8557L46.9801 35.2233C46.6137 35.2969 46.1984 35.1988 46.0029 34.8802C45.783 34.439 45.5387 33.9977 45.3188 33.5565C45.2456 33.1153 45.5632 32.8457 45.8808 32.7231L47.7863 32.0858ZM27.8998 38.0667C28.2418 37.9932 28.6816 37.9932 28.8526 38.3363L29.2923 39.709C29.3656 40.1257 28.9992 40.4198 28.6572 40.5424L26.6538 41.1552C26.3118 41.2532 25.8476 41.2042 25.701 40.8365C25.5789 40.3708 25.4567 39.9296 25.359 39.4639C25.3102 39.0717 25.6766 38.802 25.9942 38.6795C26.605 38.4589 27.2402 38.2628 27.8998 38.0667ZM46.4915 50.5676C46.8091 50.4696 47.2244 50.4696 47.3466 50.8373C47.4199 51.2785 47.5176 51.7197 47.5665 52.1609C47.5665 52.5531 47.2489 52.7982 46.9313 52.9453C46.3205 53.1904 45.7097 53.411 45.0745 53.6316C44.7814 53.7297 44.3416 53.7542 44.195 53.411L43.9019 52.1119C43.853 51.6952 44.2195 51.4256 44.5615 51.2785C45.2211 51.0579 45.8563 50.8128 46.4915 50.5676ZM42.4849 51.9893C42.8269 51.8913 43.2911 51.8913 43.4621 52.2835L43.7797 53.5826C43.8041 53.9748 43.4133 54.2199 43.0957 54.3424C42.436 54.563 41.7764 54.7591 41.1168 54.9552C40.7992 55.0288 40.335 55.0533 40.164 54.7101L39.7487 53.46C39.6754 53.0433 40.0907 52.7982 40.4327 52.6756C41.0923 52.4305 41.8008 52.2099 42.4849 51.9893ZM49.2766 45.984C49.5942 45.8859 49.9362 45.984 50.0828 46.3271C50.205 46.7928 50.3271 47.2831 50.4493 47.7733C50.4981 48.141 50.2538 48.4596 49.9362 48.6312C49.3743 48.8763 48.8369 49.1215 48.275 49.3421C47.9574 49.4401 47.5665 49.4156 47.4199 49.0479C47.2977 48.5577 47.1756 48.0429 47.029 47.5527C46.9557 47.1605 47.2244 46.8174 47.5665 46.6703C48.1528 46.4252 48.7147 46.2046 49.2766 45.984ZM45.6609 47.3566C46.0273 47.2586 46.4427 47.3076 46.6137 47.6998C46.7603 48.19 46.8824 48.6802 47.0046 49.195C47.0534 49.6117 46.7358 49.9058 46.3938 50.0774C45.7586 50.3225 45.099 50.5431 44.4638 50.7882C44.0973 50.8863 43.6576 50.8618 43.4866 50.4941C43.34 49.9794 43.1934 49.4891 43.0468 48.9744C42.9735 48.5332 43.3155 48.2145 43.682 48.0675C44.3416 47.8223 45.0012 47.6017 45.6609 47.3566ZM41.5077 48.7538C41.8986 48.6557 42.3627 48.7048 42.5582 49.0969C42.7048 49.5872 42.8514 50.1019 42.9979 50.6167C43.0468 51.0579 42.6803 51.3275 42.3383 51.4746C41.6543 51.6952 40.9458 51.9158 40.2373 52.1364C39.8708 52.2344 39.3822 52.2099 39.1868 51.8177L38.6737 50.3225C38.576 49.8813 38.9669 49.5627 39.3333 49.4401C40.0907 49.2195 40.7992 48.9989 41.5077 48.7538ZM37.0613 50.1019C37.4766 50.0039 37.9652 50.0529 38.1607 50.4696L38.6737 51.9403C38.747 52.357 38.3561 52.6266 38.0141 52.7492C37.3056 52.9453 36.5971 53.1169 35.8886 53.313C35.4977 53.3865 35.0336 53.3375 34.8137 52.9698L34.2273 51.5481C34.1052 51.1314 34.4961 50.8373 34.8625 50.7147C35.6199 50.5186 36.3528 50.3225 37.0613 50.1019ZM44.4882 43.925C44.8791 43.8269 45.3188 43.925 45.4899 44.3172C45.6853 44.8319 45.8563 45.3712 46.0518 45.8859C46.1495 46.3026 45.8563 46.6458 45.4899 46.7928C44.8302 47.038 44.1706 47.2586 43.511 47.4792C43.1201 47.5772 42.6559 47.5037 42.4605 47.1115C42.2894 46.5722 42.094 46.033 41.8986 45.4937C41.8008 45.0525 42.1184 44.7094 42.5093 44.5623L44.4882 43.925ZM40.3106 45.2486C40.7259 45.1506 41.2145 45.2241 41.4099 45.6408C41.6054 46.1801 41.8008 46.7193 41.9719 47.2831C42.0696 47.7243 41.7031 48.0675 41.3367 48.2145C40.6037 48.4351 39.8952 48.6802 39.1623 48.8763C38.747 48.9744 38.2584 48.9254 38.0385 48.4842L37.4522 46.8419C37.3545 46.3762 37.7209 46.0575 38.1118 45.9104L40.3106 45.2486ZM35.7909 46.5968C36.2307 46.4987 36.7193 46.5722 36.9391 47.0135L37.5255 48.6557C37.6232 49.0969 37.2567 49.4156 36.8658 49.5627L34.6671 50.1755C34.2518 50.2735 33.7632 50.2 33.5433 49.7833L32.9325 48.1655C32.8104 47.7243 33.1768 47.3811 33.5677 47.2586L35.7909 46.5968ZM46.7603 39.4884C47.1267 39.3903 47.5665 39.4884 47.7375 39.856C47.9329 40.3463 48.1284 40.861 48.3238 41.3513C48.3727 41.5473 48.3238 41.7434 48.2017 41.915C48.1284 42.0376 48.0062 42.1356 47.8596 42.1847L46.1739 42.7239C45.783 42.822 45.3921 42.6749 45.1967 42.3317C44.9768 41.817 44.7569 41.3022 44.5126 40.812C44.3905 40.4443 44.5859 40.1502 44.928 40.0276L45.6853 39.8315L46.7603 39.4884ZM43.0468 40.5424C43.4377 40.4688 43.8774 40.5669 44.0973 40.9346C44.3416 41.4493 44.5615 41.964 44.7814 42.4788C44.9035 42.871 44.6348 43.2141 44.2683 43.3612L42.265 43.974C41.8497 44.072 41.3855 43.974 41.1656 43.5818L40.506 41.964C40.3839 41.5473 40.677 41.2287 41.0679 41.0816L43.0468 40.5424ZM38.918 41.6944C39.3333 41.5964 39.822 41.6944 40.0418 42.0866L40.7015 43.7044C40.8236 44.1456 40.4816 44.4888 40.0907 44.6358L37.8919 45.2976C37.4522 45.3957 36.9636 45.3221 36.7437 44.8809L36.1085 43.2141C35.9863 42.7729 36.3528 42.4298 36.7437 42.2827L38.918 41.6944ZM34.4472 42.9935C34.8625 42.8955 35.3756 42.969 35.5955 43.3857L36.2307 45.0525C36.3528 45.5182 35.9619 45.8614 35.571 45.984L33.3478 46.6213C32.9325 46.7193 32.4195 46.6213 32.1996 46.2046L31.5888 44.5378C31.4911 44.0966 31.8576 43.7534 32.224 43.6063L34.4472 42.9935ZM30.0008 44.3172C30.4162 44.2191 30.9048 44.3172 31.1002 44.7094L31.711 46.3516C31.8087 46.7928 31.4667 47.136 31.0758 47.2586L28.9748 47.8468C28.5594 47.9204 28.0952 47.8223 27.8998 47.4302L27.3135 45.8124C27.2157 45.3957 27.5333 45.0525 27.8998 44.9054L30.0008 44.3172ZM48.9102 35.2969C49.301 35.1988 49.7164 35.2724 49.8874 35.64L50.0095 35.9587L50.5226 37.0127C50.6692 37.3559 50.4493 37.6745 50.1317 37.7971L48.4215 38.3363C48.0551 38.4344 47.6398 38.3363 47.4443 37.9686C47.2244 37.4784 47.0046 37.0127 46.7847 36.5225C46.6381 36.1548 46.8824 35.8606 47.2244 35.7626L48.9102 35.2969ZM45.3677 36.3018C45.7342 36.2283 46.1495 36.3018 46.3694 36.6695C46.5892 37.1598 46.8091 37.6255 47.029 38.1157C47.1511 38.5079 46.8824 38.802 46.5404 38.9491L45.0745 39.4148L44.6837 39.5129C44.2928 39.5864 43.9019 39.4639 43.6576 39.1207L43.3155 38.4834L42.9735 37.6745C42.8514 37.2823 43.1445 36.9882 43.4866 36.8411L45.3677 36.3018ZM41.4832 37.4539C41.8741 37.3559 42.3139 37.4294 42.5338 37.8216L42.6803 38.2138L43.2422 39.2432C43.3888 39.6109 43.1201 39.9051 42.7781 40.0276L40.8236 40.5669C40.4083 40.6404 39.9441 40.5669 39.7242 40.1747L39.0402 38.704C38.918 38.3118 39.2356 38.0422 39.5532 37.9441L41.0435 37.601L41.4832 37.4539ZM37.4766 38.4589C37.8675 38.3853 38.3317 38.4589 38.576 38.8265C38.8203 39.3168 39.0402 39.807 39.2601 40.2973C39.3822 40.7139 39.0402 41.0326 38.6737 41.1552L36.5238 41.768C36.1085 41.866 35.6199 41.7925 35.3756 41.3758L34.7648 39.856C34.6671 39.4393 35.0336 39.1452 35.3756 39.0226L37.4766 38.4589ZM33.1768 39.6109C33.5677 39.5129 34.0563 39.5619 34.2762 39.9541L34.887 41.4983C35.0091 41.9395 34.6182 42.2582 34.2518 42.4053L32.053 43.0671C31.6377 43.1651 31.1491 43.0916 30.9536 42.6749L30.4162 41.1061C30.3184 40.6649 30.7093 40.3708 31.0758 40.2482L33.1768 39.6109ZM28.877 40.91C29.2679 40.812 29.7321 40.861 29.9275 41.2532L30.4406 42.822C30.5383 43.2632 30.1719 43.5818 29.8054 43.7289L27.7288 44.3662C27.3379 44.4642 26.8981 44.3662 26.7027 43.974C26.5317 43.4593 26.3851 42.9445 26.2385 42.4298C26.1652 42.0131 26.5073 41.6944 26.8493 41.5473L28.877 40.91ZM43.9019 33.385C44.2683 33.3114 44.6837 33.385 44.9035 33.7281C45.1478 34.1693 45.3677 34.6105 45.5876 35.0518C45.7342 35.4194 45.4654 35.7136 45.1234 35.8116L43.2667 36.3509C42.9002 36.4489 42.436 36.3509 42.2406 36.0077L41.6054 34.6351C41.4588 34.2674 41.7764 33.9978 42.094 33.8997L43.9019 33.385ZM40.1396 34.3899C40.506 34.3164 40.9458 34.3654 41.1656 34.7331L41.8008 36.1303C41.923 36.5225 41.6054 36.8166 41.2634 36.9392L40.0663 37.2823L39.3089 37.4539C38.918 37.5274 38.4783 37.4539 38.234 37.1107L38.063 36.8166L37.6232 35.7136C37.5255 35.3214 37.8431 35.0518 38.1851 34.9292L40.1396 34.3899ZM36.1329 35.542C36.4994 35.4685 36.9636 35.493 37.159 35.8851L37.501 36.7431L37.7698 37.2333C37.9164 37.6255 37.5499 37.8706 37.2323 37.9686L35.1557 38.5079C34.7648 38.5814 34.3006 38.5569 34.0808 38.1892L33.5433 36.8901C33.4944 36.7185 33.5677 36.547 33.6899 36.4244C33.812 36.3018 33.983 36.2038 34.1296 36.1303L36.1329 35.542ZM42.7292 30.3455C43.0957 30.2475 43.511 30.321 43.7064 30.6642L44.2195 32.1104C44.2928 32.5025 43.9996 32.7967 43.682 32.9437L41.8497 33.4095C41.4832 33.483 41.0679 33.4095 40.848 33.0908L40.3106 32.0613L40.1884 31.7917C39.993 31.375 40.1396 30.9583 40.6037 30.8357L41.3367 30.7377L42.3383 30.4681L42.7292 30.3455ZM30.8803 33.1644C31.0758 33.0908 31.2957 33.1398 31.4911 33.2624C31.6621 33.3604 31.7843 33.5075 31.8576 33.6791L32.053 34.2429L32.4928 35.4439C32.4928 35.9342 32.1996 36.1548 31.9064 36.2773L31.0514 36.547L29.9275 36.8656C29.6832 36.9146 29.4145 36.9146 29.1702 36.8166C29.0725 36.7676 29.0236 36.694 28.9748 36.596L28.8282 36.1058L28.5594 35.0027V34.7576C28.6327 34.4144 28.8282 34.1203 29.1213 33.9242C29.5855 33.7281 30.0497 33.532 30.5139 33.3604C30.6116 33.2869 30.7338 33.2134 30.8803 33.1644ZM32.7859 28.1149C33.128 28.0659 33.47 28.213 33.641 28.5316C33.8853 29.0954 34.154 29.6592 34.3984 30.223C34.5205 30.6151 34.4472 31.0318 34.0563 31.2279L33.5433 31.3995C33.1524 31.4976 32.7615 31.6201 32.395 31.7427C32.0774 31.7917 31.7843 31.6937 31.5888 31.4485C31.54 31.3995 31.5155 31.326 31.4911 31.2524C31.2957 30.6642 31.1002 30.0759 30.9292 29.4631C30.8559 29.1199 31.0025 28.7768 31.3201 28.6052C31.8087 28.4581 32.2973 28.2865 32.7859 28.1149ZM29.8298 29.2425C30.1474 29.1444 30.465 29.316 30.5872 29.6347C30.7582 30.2475 30.9536 30.8357 31.1246 31.4485C31.1979 31.8897 31.0025 32.2329 30.6849 32.429C30.0986 32.6741 29.5367 32.9683 28.9748 33.2624C28.6083 33.385 28.2418 33.1889 28.1685 32.7967C28.1197 32.478 28.0952 32.1839 28.0464 31.8652C27.9975 31.5711 27.9487 31.2524 27.9242 30.9583C27.8754 30.5661 28.0708 30.1739 28.3884 29.9533C28.877 29.6837 29.3412 29.4631 29.8298 29.2425ZM34.0319 23.948C34.4472 23.948 34.8137 24.1441 35.058 24.4627C35.3267 24.8549 35.6199 25.2716 35.9131 25.6638L36.1329 26.0805C36.2306 26.3991 36.0352 26.6688 35.742 26.7668C35.2046 26.8894 34.6671 27.0364 34.1296 27.159C33.8609 27.208 33.5921 27.1345 33.3967 26.9629C33.3234 26.8649 33.2745 26.7668 33.2013 26.6688C32.9325 26.0805 32.6393 25.4922 32.3706 24.8794C32.2729 24.6098 32.3462 24.3156 32.6149 24.1931C33.1035 24.095 33.5677 23.997 34.0319 23.948ZM30.6116 22.3792C30.8315 22.3302 31.0269 22.3792 31.1491 22.5753C31.2712 22.894 31.4178 23.2126 31.5155 23.5313C31.5888 23.7764 31.4667 24.0215 31.2468 24.1441C30.8803 24.2666 30.5139 24.4382 30.1474 24.5853C29.9031 24.6588 29.6832 24.5362 29.5855 24.3156C29.4878 23.9725 29.3901 23.6293 29.3168 23.2861C29.2923 23.0655 29.4145 22.8694 29.6099 22.7469C29.952 22.6243 30.2696 22.5018 30.6116 22.3792ZM48.1039 42.7239C48.446 42.6259 48.8124 42.7729 48.9834 43.1161C49.1789 43.6063 49.3499 44.0966 49.5209 44.6113C49.6186 44.979 49.4232 45.2976 49.0812 45.4692L47.3955 46.131C47.029 46.2291 46.6381 46.131 46.4671 45.7634C46.2961 45.2486 46.1006 44.7094 45.9052 44.1946C45.8075 43.8024 46.0273 43.4593 46.3938 43.3122L48.1039 42.7239ZM50.3516 38.3118C50.6936 38.2138 51.0845 38.3363 51.2555 38.6795C51.4509 39.1697 51.6708 39.6354 51.8418 40.1257C51.964 40.4933 51.7441 40.812 51.4021 40.9591L49.6919 41.5719C49.3255 41.6699 48.9102 41.5719 48.7391 41.2042C48.5437 40.714 48.3483 40.1992 48.1528 39.709C48.0307 39.3413 48.275 38.9981 48.617 38.8756L50.3516 38.3118ZM32.053 36.7185C32.395 36.645 32.8592 36.645 33.0791 36.9882L33.6166 38.2873C33.7143 38.704 33.3234 38.9736 32.9814 39.0962L30.8803 39.709C30.5139 39.807 30.0253 39.7825 29.8543 39.3903L29.4145 38.0422C29.3412 37.65 29.7321 37.4049 30.0497 37.2823L32.053 36.7185ZM38.2828 31.1544C38.5271 31.1299 38.747 31.2034 38.9669 31.3015C39.2601 31.424 39.5044 31.6201 39.6754 31.8652L39.9441 32.2819L40.4083 33.1889C40.506 33.5565 40.2128 33.8017 39.8952 33.9242L37.9652 34.4635C37.5988 34.537 37.159 34.4635 36.9391 34.1448L36.4505 33.1889L36.0352 32.478C35.8642 32.1104 35.8398 31.6691 36.2795 31.5221C36.9391 31.3505 37.5988 31.2279 38.2828 31.1544ZM34.3984 31.8897C34.9114 31.8407 35.3023 32.1594 35.5955 32.527L36.0352 33.2869L36.5238 34.2429C36.5971 34.6596 36.2795 34.9047 35.9619 35.0272L33.983 35.6155C33.6654 35.6891 33.3234 35.6645 33.0791 35.4439C33.0302 35.3949 33.0058 35.3214 32.9569 35.2478L32.5416 34.1203L32.2973 33.483C32.2729 33.385 32.2485 33.2624 32.2729 33.1398C32.2973 32.8212 32.4195 32.5516 32.7126 32.38C33.2257 32.2329 33.812 32.0613 34.3984 31.8897ZM40.0663 26.5707C40.6282 26.5217 41.2145 26.7423 41.581 27.1345L42.5826 28.311L42.9246 28.8993C43.0712 29.2915 42.8514 29.6347 42.436 29.7572L41.8497 29.9043C41.5321 29.9533 41.1901 30.0023 40.8725 30.0514C40.6282 30.0759 40.3594 30.0759 40.1151 30.1004C39.5288 30.1249 38.9669 29.7817 38.6249 29.365C38.2584 28.8013 37.8919 28.213 37.5255 27.6247C37.3789 27.2815 37.5499 26.9874 37.9408 26.8894C38.6249 26.7668 39.3333 26.6442 40.0663 26.5707ZM36.0108 27.2325C36.4261 27.159 36.8414 27.3796 37.0857 27.6982C37.4278 28.2865 37.7942 28.8503 38.1362 29.4141C38.3073 29.7817 38.2828 30.223 37.8186 30.3455C37.159 30.4436 36.5238 30.6151 35.8886 30.7132C35.4244 30.7867 34.9847 30.4436 34.7892 30.1004C34.5205 29.5366 34.2518 28.9729 34.0075 28.4091C33.8853 28.0904 34.0319 27.7718 34.3739 27.6247C34.9114 27.5022 35.4489 27.3306 36.0108 27.2325ZM31.3934 24.5608C31.6866 24.5117 31.9553 24.7078 32.1019 24.9529C32.3462 25.5412 32.6149 26.1295 32.8837 26.7423C32.9325 26.8649 32.9569 26.9874 32.9814 27.0855C32.9569 27.3306 32.7859 27.5022 32.5905 27.6002C32.1019 27.7473 31.6377 27.9189 31.1735 28.0904C30.8803 28.164 30.5627 28.0414 30.4406 27.7718C30.2451 27.0364 30.0986 26.4482 30.0008 25.8844C29.952 25.5657 30.0253 25.2226 30.3184 25.0265C30.636 24.8549 31.0269 24.7078 31.3934 24.5608ZM32.7859 21.7174C33.0547 21.6684 33.3234 21.7419 33.4944 21.9625C33.6899 22.2812 33.8853 22.6243 34.0808 22.943C34.2029 23.2126 34.0319 23.4087 33.7632 23.4822C33.3234 23.5558 32.8837 23.6538 32.4439 23.7519C32.1752 23.7764 31.9064 23.6783 31.7598 23.4332C31.6133 23.1146 31.4667 22.8204 31.369 22.4773C31.2957 22.2567 31.4667 22.0851 31.6621 22.0115C32.0286 21.9135 32.4195 21.8154 32.7859 21.7174ZM26.947 34.7331C27.289 34.6596 27.7288 34.6596 27.8998 35.0027L28.3396 36.3754C28.4128 36.7921 28.0464 37.0862 27.7044 37.2088L25.6766 37.8216C25.3346 37.9196 24.8704 37.8706 24.7238 37.5029C24.6017 37.0372 24.4795 36.596 24.3818 36.1303C24.3329 35.7381 24.6994 35.4685 25.017 35.3459C25.6766 35.1253 26.3118 34.9292 26.947 34.7331Z" fill="black"/>
<path fill-rule="evenodd" clip-rule="evenodd" d="M59.0488 19.2171C59.3909 19.1926 59.7573 19.3152 59.9283 19.6583C60.0749 20.0996 60.2459 20.5408 60.3925 20.982C60.4658 21.3251 60.1971 21.5703 59.9039 21.6438L58.1449 21.9379C57.7784 21.987 57.3876 21.8644 57.241 21.4967L56.7768 20.1241C56.6791 19.7564 56.9967 19.5358 57.3143 19.4623L59.0488 19.2171ZM55.4087 19.7319C55.7751 19.6829 56.1904 19.8054 56.337 20.1731L56.7768 21.5457C56.8745 21.9134 56.5325 22.1585 56.2149 22.2321L54.3582 22.5262C53.9917 22.5752 53.6008 22.4527 53.4542 22.085L53.0389 20.7124C52.9656 20.3447 53.2832 20.0996 53.6008 20.0505L55.4087 19.7319ZM50.1805 6.34851C50.4492 6.324 50.8157 6.39753 50.9379 6.64265L51.3532 7.47605C51.4509 7.74567 51.1089 7.84372 50.889 7.86823L49.3254 8.0153C49.0567 8.03981 48.6658 7.99079 48.5437 7.72116L48.1772 6.86325C48.0795 6.59363 48.4459 6.49558 48.6658 6.47107L50.1805 6.34851ZM63.935 16.1532C64.2281 16.1532 64.5213 16.2757 64.6679 16.5454L65.1321 17.6484C65.2298 17.918 65.0343 18.1141 64.7656 18.1631L63.3731 18.3102C63.2753 18.3102 63.1776 18.3102 63.0799 18.2857C62.8844 18.2122 62.7134 18.0651 62.6401 17.8935L62.3958 17.3297L62.1515 16.766C62.0538 16.4963 62.2737 16.3003 62.5424 16.2512L63.935 16.1532ZM61.0766 16.3738C61.1743 16.3738 61.2476 16.3983 61.3453 16.4228C61.5652 16.4718 61.7362 16.5944 61.8339 16.7905C62.0049 17.1582 62.2004 17.5258 62.347 17.8935C62.4447 18.1631 62.2737 18.3592 62.0049 18.4083L60.5391 18.5308C60.1971 18.5553 59.855 18.4083 59.7085 18.0896L59.1954 16.913C59.0977 16.6189 59.3664 16.4473 59.6107 16.4228C60.0993 16.4228 60.588 16.3983 61.0766 16.3738ZM57.9739 16.5699C58.2915 16.5454 58.6579 16.6679 58.829 16.9621C59 17.3543 59.171 17.7464 59.342 18.1631C59.4397 18.4818 59.1466 18.7024 58.8778 18.7514L57.1432 18.972C56.8012 18.9965 56.3859 18.8985 56.2393 18.5553L55.7996 17.3297C55.7018 17.0111 56.0439 16.815 56.3126 16.766C56.8745 16.6924 57.4364 16.6189 57.9739 16.5699ZM54.5292 17.0111C54.8468 16.9621 55.2377 17.0356 55.3842 17.3788L55.7996 18.6043C55.8973 18.972 55.5553 19.1926 55.2377 19.2417C54.6269 19.3397 54.0406 19.4377 53.4298 19.5358C53.0878 19.5848 52.6969 19.4868 52.5747 19.1436L52.2571 17.918C52.2083 17.5749 52.5259 17.3788 52.819 17.3052C53.4054 17.2072 53.9673 17.1091 54.5292 17.0111ZM51.1333 17.6729H51.3532C51.5975 17.6729 51.8174 17.771 51.8907 18.0161C51.9884 18.4328 52.0861 18.825 52.2083 19.2417C52.2571 19.5848 51.9639 19.8054 51.6708 19.9035L50.9379 20.0505L50.3271 20.1486L49.7896 20.2221C49.3987 20.2466 48.9101 20.2221 48.6902 19.8299C48.5437 19.4377 48.3971 19.021 48.2505 18.6043C48.1772 18.2122 48.6658 18.0406 48.959 17.9916L50.9134 17.6974L51.1333 17.6729ZM65.523 13.7265C65.8161 13.7265 66.0849 13.8736 66.207 14.1187L66.6956 15.1482C66.7934 15.3688 66.6712 15.5649 66.4025 15.5894L65.1321 15.6629C64.8389 15.6629 64.5457 15.5159 64.3991 15.2708L63.9105 14.2168C63.8128 13.9716 63.9838 13.8001 64.2281 13.7755L65.523 13.7265ZM62.9089 13.8491C63.202 13.8491 63.5196 13.9962 63.6418 14.2413L64.1304 15.2953C64.2281 15.5404 64.0571 15.7365 63.7884 15.761L62.3958 15.859C62.0782 15.8836 61.7606 15.7365 61.6385 15.4669L61.1743 14.3883C61.0766 14.1432 61.272 13.9471 61.5408 13.9226L62.9089 13.8491ZM60.0505 14.0207C60.3437 14.0207 60.6857 14.1187 60.8323 14.4129L61.2965 15.4914C61.3942 15.761 61.1499 15.9571 60.9056 15.9816L60.6857 16.0061L59.4397 16.0551C59.1221 16.0551 58.7801 15.9571 58.6091 15.6875L58.3892 15.2462L58.1449 14.658C58.0472 14.3638 58.3159 14.1922 58.5847 14.1677L60.0505 14.0207ZM56.9722 14.3148C57.2898 14.2903 57.6319 14.3883 57.7784 14.6825L57.9739 15.1727L58.2426 15.712C58.3648 16.0061 58.0227 16.1532 57.8029 16.1777C57.241 16.2267 56.7035 16.3003 56.1416 16.3493C55.8484 16.3738 55.4575 16.3248 55.3109 16.0061L55.0666 15.3443L54.9201 14.9766C54.8223 14.658 55.1399 14.4864 55.4087 14.4619L56.9722 14.3148ZM41.3855 16.864C41.5321 16.8395 41.6542 16.7905 41.8008 16.7905C42.0207 16.7905 42.2894 16.8395 42.4116 17.0846C42.4849 17.4523 42.5582 17.82 42.6559 18.1876C42.4116 18.6534 42.0451 18.7759 41.6786 18.8495L39.602 19.2907L39.2112 19.3397C38.7958 19.3642 38.0873 19.4868 37.7942 19.1191C37.6965 18.825 37.5743 18.5308 37.6232 18.2122C37.672 17.771 38.5515 17.6484 38.8936 17.5503L39.431 17.4278L41.3855 16.864ZM64.448 11.643C64.7167 11.643 65.0099 11.7901 65.1321 12.0107L65.6207 12.9667C65.7184 13.1873 65.5718 13.3588 65.3275 13.3834L64.0815 13.4079C63.7884 13.4079 63.4952 13.2608 63.3731 13.0157L62.8844 12.0352C62.7867 11.8146 62.9577 11.643 63.202 11.643H64.448ZM61.8584 11.6921C62.1515 11.6921 62.4447 11.8146 62.5913 12.0597L63.0799 13.0402C63.1776 13.2853 63.0066 13.4569 62.7379 13.4814L61.3697 13.5549C61.0766 13.5795 60.7346 13.4324 60.6124 13.1873L60.1482 12.1823C60.0505 11.9372 60.2704 11.7656 60.5147 11.7656L61.8584 11.6921ZM49.4476 12.7706C49.7652 12.7461 50.1561 12.8196 50.2782 13.1137L50.6691 14.1922C50.7424 14.5109 50.4248 14.6825 50.1316 14.7315L48.0062 15.0747C47.6886 15.1237 47.1755 15.1237 47.029 14.7805L46.7358 13.6775C46.6869 13.3343 47.1511 13.1628 47.4687 13.0892L48.9101 12.8196L49.4476 12.7706ZM45.3432 13.4814C45.6608 13.4324 46.125 13.4324 46.2716 13.7755L46.5648 14.8786C46.5892 15.2462 46.1739 15.3933 45.8563 15.4669L44.8058 15.6629L43.682 15.9326C43.3644 15.9816 42.8269 16.0551 42.7047 15.6875L42.5826 14.5599C42.607 14.2413 42.949 14.0452 43.2422 13.9226L43.4132 13.8736L45.3432 13.4814ZM41.1412 14.4619C41.4343 14.3883 41.8985 14.3393 42.0451 14.6825C42.094 15.0502 42.1673 15.4178 42.1673 15.7855C42.1673 16.1287 41.7764 16.2757 41.5321 16.3738L41.361 16.4228L39.2844 17.0111L38.8447 17.1091C38.5271 17.1827 37.7209 17.4278 37.5499 17.0356C37.5743 16.6924 37.5987 16.3248 37.7209 15.9816C37.843 15.6384 38.2584 15.4669 38.5515 15.2953C38.6981 15.2217 38.8447 15.1482 38.9913 15.0992L40.2372 14.6825C40.5304 14.6335 40.848 14.5354 41.1412 14.4619ZM63.3486 9.6821C63.6174 9.70661 63.9105 9.82917 64.0327 10.0498L64.5457 10.9322C64.6435 11.1528 64.4969 11.2999 64.2526 11.2999H63.0066C62.7379 11.2999 62.4203 11.1528 62.2981 10.9322L61.8095 10.0253C61.6873 9.80466 61.9072 9.65759 62.1271 9.65759L63.3486 9.6821ZM60.8078 9.65759C61.0766 9.65759 61.3942 9.78014 61.5408 10.0253L62.0294 10.9322C62.1515 11.1773 61.9316 11.3244 61.6873 11.3244L60.3437 11.3734C60.0505 11.3734 59.7329 11.2508 59.5863 11.0057L59.1221 10.0743C59 9.82917 59.2443 9.70661 59.4886 9.6821L60.8078 9.65759ZM51.9151 10.1723C52.2083 10.1478 52.5991 10.2214 52.7213 10.491L53.1366 11.4714C53.2343 11.7656 52.9167 11.9127 52.648 11.9617L51.0112 12.1578C50.718 12.1823 50.3027 12.1088 50.1805 11.8146L49.7896 10.8096C49.6919 10.5155 50.0339 10.3684 50.2782 10.3439L51.9151 10.1723ZM48.6169 10.54C48.9101 10.5155 49.301 10.5645 49.4476 10.8587L49.8385 11.8636C49.9118 12.1578 49.5942 12.3294 49.3254 12.3784L48.6658 12.4764L47.3954 12.7215C47.0778 12.7706 46.5892 12.7951 46.4671 12.4519L46.2227 11.3979C46.1983 11.0548 46.6625 10.8832 46.9557 10.8096L47.1755 10.7606L48.6169 10.54ZM44.8302 11.2018C45.1478 11.1528 45.5876 11.1283 45.7097 11.4714L45.954 12.5255C45.9784 12.8686 45.5631 13.0402 45.2455 13.1137L43.2911 13.5059C43.0956 13.5304 42.8757 13.5549 42.6803 13.4814C42.5826 13.4569 42.5093 13.3834 42.4604 13.3098L42.2161 12.2068C42.2161 11.8636 42.5826 11.7166 42.9002 11.643L44.8302 11.2018ZM54.1138 7.96628C54.3826 7.96628 54.749 8.03981 54.8712 8.28493L55.3109 9.16735C55.4331 9.43698 55.1155 9.55954 54.8956 9.58405L53.3809 9.70661C53.0878 9.73112 52.7213 9.65759 52.5747 9.38796L52.1594 8.48102C52.0617 8.2114 52.3793 8.08884 52.5991 8.06433L54.1138 7.96628ZM51.0356 8.18689C51.3043 8.16237 51.6952 8.23591 51.8174 8.50554L52.2327 9.41247C52.3304 9.6821 52.0128 9.82917 51.7685 9.85368L50.1805 10.0253C49.8873 10.0498 49.4965 9.97624 49.3743 9.70661L48.9834 8.77517C48.8857 8.50554 49.2521 8.35847 49.472 8.33395L51.0356 8.18689ZM47.8107 8.50554C48.1039 8.48103 48.4704 8.53005 48.6169 8.79968L48.9834 9.73112C49.0567 10.0253 48.7147 10.1478 48.4704 10.1968L46.8091 10.4174C46.4915 10.4665 46.0273 10.491 45.9051 10.1723L45.783 9.55954L45.6364 9.19186C45.5631 8.89772 45.9051 8.77517 46.1739 8.72614L47.8107 8.50554ZM53.1855 6.15242C53.4542 6.15242 53.7962 6.22595 53.9428 6.44656L54.3826 7.25544C54.5047 7.50056 54.1871 7.62312 53.9673 7.62312L52.477 7.72116C52.2083 7.74567 51.8418 7.67214 51.6952 7.42702L51.2799 6.59363C51.1822 6.34851 51.5242 6.25046 51.7196 6.22595L53.1855 6.15242ZM46.7114 18.3102C47.0778 18.2612 47.542 18.3102 47.7374 18.6534L48.1772 19.879C48.2505 20.2466 47.8352 20.4427 47.4931 20.4917L46.8579 20.5898L45.0256 20.8349C44.6348 20.8594 44.0728 20.8594 43.8774 20.4917C43.7553 20.1241 43.6087 19.7319 43.5109 19.3397C43.4621 18.9475 43.9751 18.8004 44.3172 18.7269L46.3205 18.3837L46.7114 18.3102ZM53.7229 14.658C54.0406 14.6335 54.407 14.7315 54.5536 15.0256L54.7246 15.4423L54.9445 16.0551C55.0178 16.3738 54.6513 16.5454 54.407 16.5944C53.8451 16.6924 53.2832 16.7905 52.7457 16.8885C52.5503 16.913 52.3304 16.913 52.1594 16.815C52.0617 16.7415 51.9884 16.6679 51.9395 16.5699L51.5486 15.4178C51.4753 15.0992 51.7929 14.9031 52.0617 14.8541L53.7229 14.658ZM50.2782 15.1237C50.6203 15.0992 50.9867 15.1727 51.1333 15.4914L51.5242 16.6434C51.5975 16.9621 51.2799 17.1582 50.9867 17.2317L48.8124 17.5503C48.4704 17.5994 47.9329 17.5749 47.7863 17.2072C47.6642 16.8395 47.542 16.4473 47.4198 16.0551C47.3466 15.6875 47.8352 15.5159 48.1283 15.4669L50.1805 15.1237H50.2782ZM45.9784 15.8345C46.3205 15.7855 46.7847 15.81 46.9312 16.1532L47.2733 17.3052C47.3221 17.6729 46.9068 17.8445 46.5892 17.918L46.1495 17.9916L44.195 18.3592C43.853 18.4083 43.3155 18.4328 43.1445 18.0896C43.0712 17.7219 42.9735 17.3543 42.9002 16.9866C42.9002 16.5944 43.3888 16.4228 43.7308 16.3248L45.0501 16.0306L45.9784 15.8345ZM36.0107 18.1386C36.3039 18.0896 36.7925 17.9916 36.9635 18.2857C37.0124 18.5798 37.1101 18.874 37.1345 19.1681C37.159 19.5113 36.5482 19.6093 36.3039 19.6338C35.6931 19.7074 35.1068 19.8054 34.496 19.879C34.2762 19.9035 33.9586 19.9035 33.8364 19.6829C33.7875 19.4377 33.6898 19.2171 33.6898 18.972C33.6898 18.7024 34.0319 18.6043 34.2273 18.5553L36.0107 18.1386ZM59.0244 11.8146C59.3176 11.8146 59.6596 11.9127 59.7817 12.1823L60.2459 13.1873C60.3437 13.4569 60.1238 13.6285 59.855 13.653L58.3892 13.7755C58.096 13.8001 57.7296 13.6775 57.6074 13.4079L57.1432 12.3784C57.0455 12.1088 57.3143 11.9372 57.5586 11.9127L59.0244 11.8146ZM56.0194 12.0352C56.3126 12.0107 56.6791 12.1333 56.8256 12.4029L57.2654 13.4324C57.3631 13.702 57.0944 13.8981 56.8256 13.9226L55.2621 14.0942C54.9445 14.1187 54.578 14.0207 54.4314 13.7265L53.9917 12.6725C53.894 12.3784 54.1871 12.2313 54.4559 12.1823L56.0194 12.0352ZM52.7946 12.3539C53.1122 12.3294 53.4786 12.4274 53.6252 12.697L54.0406 13.751C54.1383 14.0452 53.8207 14.2413 53.5519 14.2658L51.8907 14.4864C51.5731 14.5109 51.1822 14.4374 51.0356 14.1187L50.6447 13.0402C50.547 12.7461 50.889 12.5745 51.1577 12.5255L52.7946 12.3539ZM36.084 16.1777C36.2795 16.1042 37.0124 15.859 37.0368 16.2512C37.0124 16.5944 36.988 16.913 36.9147 17.2562C36.8414 17.6239 36.2795 17.771 35.9619 17.869L34.1784 18.3102C33.983 18.3592 33.6654 18.3837 33.5677 18.1631C33.5432 17.918 33.4944 17.6484 33.5188 17.4033C33.5432 17.1091 33.9097 16.9621 34.1296 16.864C34.8136 16.6189 35.4488 16.3983 36.084 16.1777ZM58.0227 9.73112C58.3159 9.73112 58.6335 9.82917 58.7801 10.0743L59.2443 11.0302C59.3664 11.2754 59.0977 11.4224 58.8534 11.4469L57.412 11.545C57.1188 11.5695 56.7524 11.4469 56.6302 11.1773L56.1904 10.2214C56.0927 9.97624 56.3615 9.82917 56.6058 9.80466L58.0227 9.73112ZM55.0666 9.9027C55.3598 9.87819 55.7018 9.97624 55.8484 10.2459L56.2882 11.2018C56.3859 11.4714 56.1172 11.6185 55.8484 11.643L54.3093 11.7901C54.0161 11.8146 53.6252 11.7166 53.5031 11.4469L53.0878 10.4665C52.99 10.1968 53.3076 10.0498 53.5519 10.0253L55.0666 9.9027ZM59.7329 7.7947C60.0016 7.7947 60.2948 7.91726 60.4414 8.13786L60.93 8.99577C61.0521 9.21638 60.8323 9.33893 60.6124 9.36345L59.2931 9.38796C59.0244 9.38796 58.6824 9.28991 58.5602 9.04479L58.096 8.18689C57.9739 7.96628 58.2426 7.84372 58.4381 7.84372L59.7329 7.7947ZM57.0211 7.81921C57.2898 7.81921 57.6319 7.91726 57.754 8.13786L58.2182 9.02028C58.3403 9.2654 58.0716 9.38796 57.8517 9.41247L56.4348 9.486C56.1416 9.486 55.7996 9.41247 55.653 9.14284L55.2132 8.26042C55.0911 8.0153 55.4087 7.89275 55.6041 7.89275L57.0211 7.81921ZM56.0194 6.07888C56.2882 6.07888 56.6058 6.17693 56.7524 6.39753L57.2165 7.20642C57.3387 7.42702 57.0455 7.54958 56.8501 7.54958L55.4575 7.5986C55.1888 7.5986 54.8468 7.52507 54.7002 7.27995L54.2604 6.47107C54.1383 6.22595 54.4559 6.15242 54.6513 6.1279L56.0194 6.07888ZM62.2004 18.8495C62.518 18.825 62.8112 19.021 62.9333 19.2907C63.0799 19.7074 63.2265 20.0996 63.3486 20.5163C63.4219 20.7859 63.2509 21.031 62.9822 21.1045L61.5652 21.3497C61.2232 21.3742 60.9056 21.2271 60.759 20.9084C60.6124 20.4672 60.4658 20.026 60.2948 19.5848C60.1971 19.2662 60.4414 19.0456 60.7346 18.9965L62.2004 18.8495ZM32.3217 11.4714C32.6149 11.2754 33.0302 11.2263 32.9569 11.6921C32.8836 12.2558 32.7859 12.7951 32.6637 13.3588C32.5904 13.7265 32.2973 14.0207 31.9797 14.2168C31.5644 14.4374 31.1246 14.6335 30.6849 14.8295C30.4894 14.9031 30.2451 14.8786 30.1962 14.6335C30.1474 14.2413 30.1474 13.8736 30.1718 13.4814C30.1962 13.1137 30.4161 12.8196 30.7093 12.599C31.2712 12.2558 31.8087 11.8881 32.3217 11.4714ZM39.2356 6.71618C39.5043 6.66716 39.9441 6.61814 40.0174 6.93679L40.1884 7.91726C40.2128 8.23591 39.8219 8.40749 39.5288 8.48102L37.7697 8.89772C37.501 8.94675 37.0857 8.97126 37.0124 8.67712L36.8658 7.69665C36.8658 7.378 37.2323 7.20642 37.501 7.13288L39.2356 6.71618ZM35.6931 7.5986C35.9619 7.54958 36.3283 7.52507 36.4261 7.81921C36.4749 8.13786 36.5482 8.45651 36.5726 8.79968C36.5971 9.11833 36.2306 9.28991 35.9374 9.36345L35.7664 9.41247L34.2029 9.97624C33.8364 10.0743 33.5188 10.0498 33.4944 9.73112C33.47 9.43698 33.4455 9.16735 33.4455 8.87321C33.4455 8.77517 33.4211 8.70163 33.4211 8.60358C33.4211 8.28493 33.7387 8.13786 34.0319 8.03981L35.6931 7.5986ZM32.3461 8.45651C32.5904 8.40749 32.9325 8.38298 33.0546 8.67712L33.1035 9.53503V9.9027C33.0546 10.2949 32.7615 10.589 32.4194 10.7851C31.7598 11.2508 31.2712 11.643 30.7582 12.0107C30.4406 12.1823 30.2207 12.0107 30.1962 11.6675C30.1718 11.2754 30.1962 10.9077 30.1962 10.5155C30.1962 10.2949 30.1718 10.0988 30.1718 9.9027C30.1718 9.51052 30.465 9.21638 30.7826 9.02028L31.0757 8.87321L31.7842 8.6281L32.3461 8.45651ZM38.8447 4.73074C39.089 4.70623 39.4799 4.68171 39.602 4.95134L39.7975 5.56414L39.8219 5.80925C39.8219 6.1279 39.431 6.29949 39.1623 6.37302L37.4033 6.81423C37.159 6.86325 36.7437 6.91228 36.6459 6.59363L36.5238 5.63767C36.5238 5.31902 36.8902 5.14744 37.159 5.0739C37.4277 5.00037 37.7209 4.90232 38.0141 4.8533C38.3072 4.80427 38.576 4.75525 38.8447 4.73074ZM35.4244 5.53962C35.6687 5.4906 36.084 5.44158 36.1573 5.73572L36.2795 6.69167C36.2795 7.01032 35.9374 7.18191 35.6443 7.25544L33.983 7.67214C33.7387 7.72116 33.3478 7.77019 33.2745 7.45153C33.2256 7.13288 33.1768 6.83874 33.1524 6.52009C33.1279 6.22595 33.4944 6.05437 33.7631 5.95632L35.4244 5.53962ZM32.1018 6.44656C32.3217 6.39753 32.737 6.34851 32.7859 6.64265C32.8592 6.93679 32.8836 7.27995 32.908 7.57409C32.9325 7.89274 32.566 8.03981 32.3217 8.11335L30.7582 8.53005C30.5627 8.57907 30.4161 8.57907 30.2695 8.53005C30.1718 8.50554 30.0985 8.432 30.0741 8.30944C30.0252 8.0153 29.9764 7.69665 29.9519 7.378C29.9275 7.08386 30.2695 6.91228 30.5383 6.83874L32.1018 6.44656ZM35.1312 3.62771C35.3511 3.57869 35.742 3.55418 35.8397 3.82381L35.9619 4.21599C35.9863 4.36306 35.9863 4.51013 36.0107 4.6572C36.0107 4.97585 35.6687 5.14744 35.3755 5.22097L33.7143 5.66218C33.47 5.71121 33.0791 5.76023 33.0058 5.46609L32.908 4.53464C32.908 4.2405 33.2501 4.06892 33.5188 3.97088C33.7387 3.89734 33.9586 3.82381 34.2029 3.77478L35.1312 3.62771ZM31.8575 4.46111C32.0774 4.41209 32.4683 4.36306 32.5416 4.6572C32.566 4.95134 32.6393 5.26999 32.6393 5.58865C32.6637 5.88279 32.2973 6.05437 32.0285 6.1279L30.465 6.56911C30.2451 6.61814 29.8542 6.66716 29.8054 6.37302C29.7565 6.07888 29.7321 5.76023 29.7076 5.46609C29.6832 5.17195 30.0252 5.00037 30.294 4.92683L31.8575 4.46111ZM34.7159 2.1325C34.9358 2.10799 35.3022 2.05896 35.4 2.30408L35.5954 2.99041C35.6443 3.26004 35.2534 3.33357 35.0579 3.3826L33.4944 3.67674C33.2745 3.70125 32.9569 3.79929 32.8348 3.55418L32.6393 2.79431C32.6149 2.5492 32.9813 2.45115 33.2012 2.40213L34.7159 2.1325ZM31.6132 2.72078C31.8087 2.67176 32.1996 2.62273 32.2973 2.86785L32.4439 3.48064C32.4439 3.87283 32.1263 4.04441 31.8575 4.11795L30.294 4.58367C30.0741 4.63269 29.7076 4.68171 29.6343 4.41209L29.5366 3.52967C29.5366 3.40711 29.5855 3.30906 29.6832 3.21101C29.8054 3.11297 29.9764 3.06394 30.123 3.03943L31.6132 2.72078ZM31.9553 14.6089C32.1507 14.5354 32.4927 14.4619 32.4927 14.756C32.4927 15.0747 32.4683 15.4178 32.4194 15.7365C32.3706 16.0061 32.1263 16.1777 31.882 16.2757C31.5155 16.4228 31.1246 16.5454 30.7337 16.6679C30.5627 16.7169 30.3428 16.717 30.294 16.4963C30.2451 16.2267 30.2207 15.9571 30.2451 15.6875C30.2451 15.4178 30.465 15.2462 30.6849 15.1482C31.1246 15.0011 31.5399 14.805 31.9553 14.6089ZM29.561 15.6139C29.7321 15.5649 29.9764 15.5894 30.0008 15.81C30.0497 16.0796 30.0741 16.3248 30.0741 16.5944C30.0741 16.815 29.8786 16.9376 29.7076 17.0111L28.7548 17.2807C28.5838 17.3052 28.3884 17.2807 28.3395 17.1091C28.2907 16.864 28.2418 16.6189 28.2174 16.3983C28.1929 16.1777 28.3884 16.0306 28.5594 15.9571C28.9014 15.859 29.2435 15.7365 29.561 15.6139ZM29.39 13.3588C29.6343 13.2608 29.8542 13.3588 29.9031 13.6285C29.9275 13.9962 29.9519 14.3638 29.9519 14.756C29.9519 15.0256 29.7565 15.2217 29.5366 15.3198C29.1946 15.4423 28.8526 15.5649 28.5105 15.6629C28.3151 15.712 28.1196 15.6384 28.0463 15.4423C27.9731 15.1237 27.9242 14.805 27.8753 14.4864C27.8509 14.2168 27.9975 13.9962 28.2418 13.8736C28.6327 13.702 29.0236 13.5304 29.39 13.3588ZM27.1424 14.2658C27.3623 14.2168 27.6066 14.3393 27.6555 14.5599C27.7288 14.8786 27.802 15.1972 27.8265 15.5159C27.8509 15.7365 27.6799 15.9081 27.4844 15.9571C27.1424 16.0551 26.8248 16.1287 26.4828 16.2022C26.2873 16.2267 26.043 16.1532 25.9697 15.9571C25.872 15.6629 25.7743 15.3443 25.701 15.0502C25.6521 14.805 25.7987 14.6089 26.0186 14.5354C26.4095 14.4619 26.776 14.3638 27.1424 14.2658ZM42.7536 6.02986C43.0223 6.00535 43.4132 6.02986 43.5354 6.29949L43.853 7.18191C43.9263 7.42702 43.6575 7.54958 43.4621 7.5986L43.2911 7.64763L41.3855 8.08884C41.1167 8.13786 40.6526 8.18688 40.5793 7.86823L40.4083 6.88777C40.3838 6.56911 40.7991 6.39753 41.0923 6.29949C41.7275 6.15242 42.2406 6.07888 42.7536 6.02986ZM29.1702 9.75563C29.4389 9.6821 29.7565 9.73112 29.8054 10.0498C29.8298 10.1968 29.8542 10.3684 29.8542 10.5155C29.8786 10.9812 29.8786 11.4224 29.8542 11.8881C29.8298 12.2803 29.6832 12.648 29.3656 12.8686C28.9747 13.0647 28.5838 13.2608 28.1929 13.4324C27.9242 13.5059 27.7043 13.3343 27.631 13.0647C27.5089 12.5009 27.4112 11.9617 27.3134 11.3979C27.2646 11.1528 27.289 10.8832 27.3623 10.6381C27.46 10.5155 27.5822 10.4174 27.7043 10.3684C28.2174 10.1723 28.706 9.97624 29.1702 9.75563ZM26.3118 10.9077C26.7027 10.8341 26.947 11.2018 27.0203 11.5205C27.1668 12.0597 27.289 12.599 27.3623 13.1628C27.4112 13.4569 27.289 13.7265 27.0203 13.8491C26.6538 13.9716 26.2873 14.0697 25.8965 14.1432C25.6033 14.1677 25.359 13.9962 25.2613 13.751C25.0658 13.2608 24.8704 12.7706 24.6994 12.2558C24.6016 11.9372 24.6016 11.5205 24.9681 11.3734C25.4323 11.2508 25.8965 11.1038 26.3118 10.9077ZM42.094 4.26502C42.3627 4.2405 42.7292 4.2405 42.8513 4.51013L43.1689 5.31902C43.2422 5.58865 42.8758 5.71121 42.6559 5.73572L41.0434 5.95632C40.9213 5.98083 40.7747 5.98083 40.6526 5.95632C40.5304 5.93181 40.4083 5.9073 40.335 5.80925L39.9929 4.90232C39.9441 4.63269 40.3105 4.53464 40.5304 4.48562C41.0434 4.38757 41.5565 4.33855 42.094 4.26502ZM28.9259 7.32898C29.1457 7.27995 29.5122 7.23093 29.5855 7.52507C29.6588 7.81921 29.6588 8.13786 29.7076 8.432C29.6099 8.87321 29.4145 9.09382 29.1457 9.24089C28.6815 9.46149 28.1929 9.6821 27.7043 9.87819C27.4112 9.97624 27.118 9.85368 27.0691 9.55954C27.0203 9.31442 26.9714 9.04479 26.947 8.77517L26.9225 8.45651L26.8981 8.28493C26.9225 7.99079 27.1913 7.84372 27.46 7.74567L28.9259 7.32898ZM41.4588 2.67176C41.6786 2.64724 42.0695 2.64725 42.1917 2.89236L42.4849 3.62771C42.5581 3.87283 42.1673 3.97088 41.9718 3.99539L40.4083 4.19148C40.1884 4.21599 39.7731 4.21599 39.6509 3.97088L39.3822 3.23553C39.3089 2.99041 39.7242 2.89236 39.8952 2.86785L41.4588 2.67176ZM38.3072 3.08846C38.5515 3.06394 38.918 3.03943 39.0401 3.28455L39.3089 4.0199C39.3577 4.28953 38.9913 4.38757 38.7714 4.4366C38.3316 4.51013 37.8919 4.55916 37.4521 4.6572L37.159 4.73074C36.9147 4.77976 36.4994 4.82878 36.4261 4.53464C36.4261 4.46111 36.4016 4.38757 36.4016 4.33855L36.2306 3.75027C36.1818 3.48064 36.5726 3.3826 36.7681 3.35808C37.2567 3.26004 37.7942 3.16199 38.3072 3.08846ZM28.706 5.36804C28.9259 5.31902 29.3167 5.27 29.3656 5.53962C29.4145 5.83376 29.4389 6.15242 29.4633 6.44656C29.4878 6.7407 29.1457 6.91228 28.9014 6.98581L27.4112 7.42702C27.2157 7.47605 26.8248 7.52507 26.776 7.23093C26.7271 6.93679 26.7027 6.64265 26.6782 6.34851C26.6538 6.05437 26.9958 5.88279 27.2401 5.80925L28.706 5.36804ZM40.848 1.22557C41.0679 1.20106 41.4343 1.20106 41.5565 1.42166L41.8497 2.08348C41.923 2.32859 41.5321 2.40213 41.361 2.42664L39.8219 2.62273C39.602 2.64724 39.2112 2.67176 39.089 2.42664L38.8447 1.76482C38.7714 1.54422 39.1867 1.44617 39.3577 1.42166L40.848 1.22557ZM37.7942 1.61775C37.9896 1.59324 38.4049 1.56873 38.5027 1.78934L38.747 2.45115C38.8203 2.69627 38.4049 2.79432 38.2339 2.81883L36.6704 3.06394C36.4749 3.08846 36.0352 3.11297 35.9619 2.89236L35.7664 2.20603C35.7176 1.96092 36.1329 1.86287 36.3039 1.83836L37.7942 1.61775ZM25.8965 8.2114C26.1163 8.16237 26.4339 8.13786 26.5316 8.40749L26.5805 8.8487C26.6294 9.14284 26.6782 9.41247 26.7027 9.70661C26.7271 10.0253 26.5316 10.3194 26.2385 10.4665C25.7987 10.6381 25.3345 10.7851 24.8704 10.9322C24.5772 10.9812 24.284 10.8587 24.2107 10.589C24.113 10.2214 24.0153 9.85368 23.942 9.486V9.2654C23.9176 9.09382 24.0153 8.92224 24.1374 8.79968C24.2352 8.72614 24.3329 8.67712 24.455 8.65261L25.8965 8.2114ZM35.9863 9.75563C36.255 9.6821 36.6459 9.63307 36.7437 9.97624L36.7925 11.1528C36.7925 11.2754 36.7437 11.3734 36.6704 11.4469C36.4749 11.6675 36.2306 11.8391 35.9863 11.9617L35.4488 12.1823C34.8869 12.55 34.325 12.9176 33.7387 13.2363C33.5188 13.3588 33.0546 13.5059 33.0791 13.0892C33.1279 12.4764 33.2989 11.8881 33.4455 11.2999C33.5677 10.8096 33.8853 10.5645 34.2029 10.3929L34.6426 10.1968L35.9863 9.75563ZM15.6112 22.7958C15.831 22.7468 16.4174 22.6488 16.4418 22.9919C16.4662 23.3596 16.4174 23.7273 16.3685 24.0705C16.2463 24.4626 15.7822 24.6832 15.3913 24.8303L15.1958 24.9038L13.4368 25.5166C13.0459 25.5902 12.8016 25.5166 12.7772 25.2715V24.095C12.7772 23.9969 12.8261 23.9234 12.8505 23.8253C13.0215 23.6292 13.2658 23.4822 13.5345 23.3841L14.5362 23.0655L15.6112 22.7958ZM11.8733 23.9969C12.0931 23.9234 12.4596 23.9234 12.484 24.2175C12.484 24.6097 12.484 25.0019 12.4596 25.3941C12.4352 25.7372 12.142 25.9824 11.8244 26.1294L10.2608 26.7422C10.0165 26.8158 9.65008 26.7912 9.65008 26.4971C9.67451 26.1049 9.69894 25.6882 9.72337 25.296C9.77223 24.9774 10.041 24.7078 10.3586 24.5852L11.8733 23.9969ZM8.795 25.198C9.03931 25.1245 9.38134 25.1245 9.38134 25.4186C9.35691 25.8353 9.33248 26.2275 9.30805 26.6442C9.25918 26.9138 9.06374 27.1344 8.84387 27.306L7.50018 27.8943C7.25587 27.9678 7.036 27.8698 6.98714 27.6246L6.91384 26.4726C6.91384 26.203 7.08486 25.9333 7.3536 25.8108L7.57347 25.7127L8.795 25.198ZM25.7743 18.4818C25.9453 18.4573 26.1652 18.4573 26.2385 18.6534C26.3118 18.8495 26.3606 19.0701 26.3851 19.2907C26.4095 19.4868 26.1896 19.6093 26.0186 19.6583L24.9192 19.9525C24.7482 19.977 24.455 20.0015 24.3818 19.8054C24.3085 19.5848 24.2596 19.3397 24.2352 19.1191C24.2107 18.8985 24.4795 18.7759 24.6505 18.7269L25.7743 18.4818ZM23.3068 19.021C23.5023 18.9965 23.8443 18.972 23.942 19.1926C24.0153 19.4132 24.0642 19.6583 24.0886 19.879C24.0886 20.1241 23.771 20.2466 23.5755 20.3202L21.9143 20.7614C21.6944 20.8104 21.1569 20.933 21.0592 20.6388C21.0103 20.3692 20.9615 20.0996 20.9615 19.8054C20.9615 19.4868 21.4745 19.3887 21.6944 19.3397L23.3068 19.021ZM15.5134 20.5898C15.7577 20.5408 16.2952 20.4917 16.3685 20.8104C16.4418 21.1291 16.4418 21.4722 16.4418 21.7909C16.3929 22.1585 15.9532 22.3056 15.6112 22.4282L14.4873 22.7223L13.559 23.0165C13.3391 23.0655 12.8261 23.139 12.8016 22.8204C12.7772 22.4527 12.8016 22.1095 12.8016 21.7418C12.8505 21.3987 13.1925 21.2271 13.5345 21.1045L14.2919 20.8839L15.5134 20.5898ZM11.8733 21.6438C12.0931 21.5703 12.4352 21.5703 12.4596 21.8399C12.484 22.2076 12.4596 22.5507 12.4596 22.9184C12.4352 23.2371 12.1664 23.4577 11.8488 23.6047L10.3586 24.1685C10.1387 24.242 9.77223 24.242 9.77223 23.9479C9.77223 23.5802 9.79666 23.2125 9.82109 22.8449C9.84552 22.5262 10.1387 22.3056 10.4074 22.1831L11.8733 21.6438ZM8.91716 22.7713C9.13703 22.6978 9.47906 22.6978 9.47906 22.9674L9.4302 24.0705C9.38134 24.3891 9.1126 24.6342 8.795 24.7813L7.30473 25.3696C7.06043 25.4676 6.81612 25.3696 6.79169 25.1245L6.76726 24.4626C6.76726 24.3156 6.79169 24.1685 6.81612 24.0214C6.86498 23.7028 7.13372 23.4577 7.45132 23.3351L8.91716 22.7713ZM6.0832 23.9479C6.30308 23.8498 6.52295 23.9479 6.54738 24.1685L6.59625 25.2715C6.59625 25.5412 6.42523 25.8108 6.18092 25.9333L5.10598 26.4236C4.8861 26.5216 4.69066 26.3991 4.66623 26.1785L4.64179 25.0999C4.64179 24.8303 4.81281 24.5852 5.05712 24.4626L6.0832 23.9479ZM9.01488 20.5163C9.21032 20.4427 9.55235 20.4427 9.57678 20.7124L9.52792 21.7418C9.50349 22.0605 9.21032 22.2811 8.94159 22.4037L7.50018 22.9919C7.30473 23.0655 6.96271 23.0655 6.93827 22.7958L7.01157 21.7418C7.06043 21.4477 7.32917 21.2271 7.5979 21.1045L9.01488 20.5163ZM6.15649 21.6683C6.35194 21.5948 6.69397 21.5948 6.69397 21.8644L6.62068 22.9184C6.59625 23.1145 6.44966 23.2861 6.30308 23.4086C6.22979 23.4822 6.15649 23.5312 6.0832 23.5802L5.03268 24.095C4.83724 24.193 4.64179 24.095 4.61736 23.8744V22.8449C4.64179 22.5752 4.78838 22.3546 5.03268 22.2321L5.79003 21.8399L6.15649 21.6683ZM3.98217 22.7468C4.17761 22.6488 4.37306 22.7223 4.37306 22.9429V23.9724C4.37306 24.2175 4.20204 24.4626 3.98217 24.6097L3.02937 25.0999C2.83393 25.198 2.66291 25.0754 2.66291 24.8793V23.8744C2.66291 23.6292 2.8095 23.3841 3.02937 23.2616L3.98217 22.7468ZM9.03931 18.4083C9.23476 18.3347 9.55235 18.3347 9.57678 18.5798V19.5603C9.55235 19.8544 9.28362 20.0505 9.01488 20.1731L7.62233 20.7124C7.42689 20.7859 7.08486 20.7859 7.08486 20.5408L7.13372 19.5603C7.15815 19.2662 7.42689 19.0701 7.69562 18.9475L9.03931 18.4083ZM6.30308 19.5113C6.49852 19.4377 6.81612 19.4132 6.81612 19.6829L6.76726 20.6633C6.7184 20.9575 6.44966 21.1781 6.18092 21.3006L5.69231 21.4967L5.03268 21.8399C4.83724 21.9379 4.64179 21.8644 4.64179 21.6438L4.66623 20.6633C4.69066 20.4182 4.86167 20.1976 5.08155 20.0505L5.44801 19.8544L6.30308 19.5113ZM20.3996 12.8441C20.6683 12.8196 21.0103 12.8931 21.1325 13.1628C21.2058 13.3343 21.2546 13.5059 21.3279 13.6775C21.4989 13.9226 21.6455 14.1677 21.7921 14.4129C21.9631 14.756 21.6944 14.9031 21.3768 14.9276L20.3018 14.9031L19.5933 15.0502C19.3246 15.0747 18.9826 15.0256 18.836 14.756C18.6894 14.4129 18.5428 14.0697 18.4451 13.702C18.3718 13.3834 18.6406 13.2118 18.9093 13.1382L20.3996 12.8441ZM17.2969 13.4569C17.3946 13.4324 17.4923 13.4324 17.59 13.4324C17.7855 13.4569 18.0054 13.5795 18.0786 13.751C18.2497 14.0942 18.3718 14.4619 18.4695 14.805C18.5428 15.0992 18.2497 15.2708 17.9809 15.3198C17.419 15.4178 16.8571 15.5159 16.2952 15.5894C16.1486 15.6139 16.002 15.5894 15.8555 15.5649C15.7089 15.5404 15.5623 15.4669 15.5134 15.3198C15.4157 15.0011 15.3424 14.658 15.2936 14.3393C15.2691 14.0942 15.489 13.9471 15.6844 13.8246C16.3196 13.7265 16.8083 13.5795 17.2969 13.4569ZM16.9548 11.4469C17.1503 11.3979 17.4679 11.3489 17.5167 11.594C17.5412 11.7411 17.5412 11.8881 17.5656 12.0352C17.59 12.2068 17.6633 12.3539 17.6878 12.5255C17.7366 12.8196 17.4679 13.0157 17.1991 13.0892L16.1242 13.3834L15.7577 13.5059C15.5867 13.5549 15.2203 13.604 15.1958 13.3343C15.147 13.0402 15.147 12.7461 15.1225 12.4519C15.1225 12.1823 15.3668 12.0107 15.6112 11.9127L16.9548 11.4469ZM14.2675 12.4274C14.4629 12.3539 14.7805 12.3294 14.8294 12.5745L14.9027 13.4569C14.9027 13.7265 14.6339 13.9226 14.3896 14.0207L13.0704 14.5109C12.8749 14.5844 12.5573 14.6089 12.5329 14.3638L12.484 13.4814C12.484 13.2118 12.7528 13.0402 12.9971 12.9422L14.2675 12.4274ZM19.2757 19.7319C19.5689 19.7074 20.253 19.5603 20.3996 19.9035C20.4973 20.1731 20.5461 20.4672 20.4973 20.7614C20.4484 21.1781 19.7155 21.3006 19.3979 21.3987L17.6878 21.8644C17.4435 21.9134 16.9793 21.987 16.906 21.6683C16.8571 21.3497 16.8083 21.031 16.8327 20.6878C16.8327 20.3447 17.248 20.1976 17.5167 20.1241L19.0559 19.7564L19.2757 19.7319ZM22.7449 17.3788C22.9892 17.3788 23.3312 17.3788 23.4534 17.6239C23.5755 17.869 23.6733 18.1141 23.7221 18.3592C23.771 18.6043 23.429 18.7024 23.2579 18.7514C22.7205 18.8495 22.1586 18.9475 21.6211 19.0456C21.3524 19.0701 20.8637 19.1191 20.6927 18.8495C20.5461 18.5798 20.424 18.2857 20.3263 17.9916C20.2285 17.6729 20.8149 17.5994 21.0103 17.5503C21.5722 17.5013 22.1586 17.4523 22.7449 17.3788ZM18.7383 17.771C18.8604 17.7464 19.007 17.7464 19.1292 17.771C19.349 17.7955 19.5933 17.8445 19.7399 18.0406C19.9109 18.3102 20.082 18.6043 20.1308 18.923C20.2041 19.2907 19.4223 19.3887 19.178 19.4132L19.007 19.4377L17.4435 19.8054C17.1991 19.8544 16.7594 19.879 16.6372 19.5848C16.5395 19.2662 16.4662 18.9475 16.4418 18.6289C16.4174 18.2857 16.8327 18.1631 17.077 18.1141L18.7383 17.771ZM15.1225 18.4573C15.3913 18.4083 15.9043 18.4083 16.002 18.7024C16.1242 19.021 16.1731 19.3397 16.1975 19.6583C16.1975 20.0015 15.7577 20.1486 15.4646 20.2221L14.3163 20.4672L13.5101 20.6878C13.2658 20.7369 12.9482 20.7859 12.7772 20.5653L12.7283 19.4623C12.7528 19.2662 12.8749 19.0946 13.0459 18.972C13.1437 18.923 13.2414 18.8985 13.3391 18.8495L14.5851 18.5308C14.7561 18.5308 14.9515 18.5063 15.1225 18.4573ZM11.8488 19.4132C12.0443 19.3397 12.3863 19.3397 12.4107 19.6093L12.4352 20.6143C12.4107 20.9084 12.142 21.1291 11.8733 21.2516L10.4319 21.7909C10.212 21.8644 9.86995 21.8644 9.86995 21.5948L9.89438 20.5653C9.91881 20.2711 10.1875 20.0505 10.4563 19.9525L11.8488 19.4132ZM21.6211 15.3443C21.9631 15.3688 22.354 15.4423 22.5495 15.7365C22.7449 16.0306 22.8915 16.3493 23.0381 16.6679C23.1358 16.9376 22.7938 17.0356 22.5983 17.0846C22.012 17.1336 21.4012 17.2072 20.8149 17.2317C20.424 17.2317 19.9354 17.2072 19.6422 16.8885C19.5689 16.7905 19.4956 16.717 19.4223 16.6189C19.349 16.3983 19.2757 16.1532 19.2269 15.9081C19.178 15.6139 19.4712 15.4669 19.6911 15.3933C19.7888 15.3688 19.9109 15.3443 20.0087 15.3198C20.5706 15.3443 21.0836 15.3443 21.6211 15.3443ZM18.1031 15.712C18.3718 15.6875 18.7627 15.712 18.8604 15.9816C18.9826 16.2757 19.0803 16.6189 19.1536 16.9376C19.2025 17.2317 18.8849 17.3788 18.6406 17.4523L16.9793 17.771C16.7105 17.7955 16.2708 17.7955 16.1486 17.5013C16.0265 17.1827 15.9043 16.8395 15.831 16.5209C15.7577 16.2022 16.1486 16.0551 16.4174 16.0061L18.1031 15.712ZM14.6584 16.3493C14.8782 16.3003 15.1958 16.3003 15.3424 16.4963C15.5379 16.913 15.66 17.2317 15.7089 17.5749C15.7822 17.918 15.318 18.0406 15.0248 18.1141L14.6584 18.1631L13.2658 18.5308C12.9726 18.5798 12.6795 18.5553 12.6795 18.3347C12.655 18.0161 12.655 17.6974 12.655 17.3788C12.6795 17.0846 12.9238 16.913 13.1925 16.7905L13.9499 16.5209L14.6584 16.3493ZM11.8 17.3297C11.9954 17.2562 12.313 17.2562 12.3619 17.5013L12.3863 18.4573C12.3619 18.7514 12.1176 18.9475 11.8488 19.0701L10.4563 19.6093C10.2608 19.6829 9.91881 19.6829 9.89438 19.4377V18.4818C9.91881 18.1877 10.1631 17.9916 10.4319 17.8935L11.8 17.3297ZM14.4141 14.3393C14.6095 14.2903 14.9271 14.2658 14.976 14.5109C15.0004 14.6089 14.976 14.6825 15.0004 14.7805C15.0492 15.0011 15.1225 15.2462 15.147 15.4669C15.1958 15.761 14.8538 15.9326 14.5851 16.0061L14.1697 16.1042L13.1925 16.4718C12.9971 16.5209 12.6795 16.5454 12.6306 16.3003L12.5818 15.3933C12.6062 15.1237 12.8505 14.9276 13.0948 14.8295L14.4141 14.3393ZM11.7267 15.3443C11.9221 15.2708 12.2397 15.2462 12.2642 15.4914L12.313 16.3983C12.2886 16.6679 12.0443 16.864 11.7755 16.9866L10.4319 17.5013C10.2364 17.5749 9.91881 17.5994 9.89438 17.3297V16.4228C9.91881 16.1532 10.1631 15.9571 10.4074 15.859L11.7267 15.3443ZM9.06374 16.3983C9.23476 16.3248 9.57678 16.3003 9.60121 16.5454V17.4523C9.57678 17.7464 9.30805 17.918 9.06374 18.0406L7.72006 18.5798C7.54904 18.6534 7.20701 18.6779 7.20701 18.4083L7.23144 17.4768C7.25587 17.2072 7.50018 17.0111 7.76892 16.8885L9.06374 16.3983ZM11.6534 13.4569C11.8244 13.3834 12.142 13.3588 12.1909 13.604L12.2153 14.4619C12.2153 14.7315 11.9466 14.9276 11.7022 15.0256L10.4074 15.5404C10.2364 15.6139 9.91881 15.6384 9.86995 15.3933L9.84552 14.5109C9.86995 14.2413 10.1143 14.0697 10.3586 13.9471L11.6534 13.4569ZM19.4223 21.7418C19.7155 21.6928 20.3996 21.4967 20.4484 21.8399C20.4484 22.2076 20.3507 22.5507 20.2285 22.8694C20.0575 23.2616 19.7644 23.4086 19.5201 23.5067L17.6878 24.095C17.4679 24.144 16.9304 24.2665 16.906 23.8989C16.8815 23.5557 16.906 23.188 16.9548 22.8449C17.0037 22.4772 17.419 22.3056 17.7122 22.2076L19.4223 21.7418ZM9.18589 46.9889C9.45463 46.9644 9.65008 47.2095 9.72337 47.4301C9.84552 47.8223 9.99211 48.239 10.1143 48.6312C10.1631 48.8272 10.1387 49.1214 9.89438 49.1459C9.60121 49.1704 9.28362 49.1949 8.99045 49.1949C8.74614 49.1949 8.57513 48.9743 8.47741 48.7537C8.35525 48.386 8.2331 48.0184 8.11095 47.6262C8.06208 47.4546 8.08651 47.1605 8.30639 47.1359C8.57513 47.0624 8.89273 47.0134 9.18589 46.9889ZM7.45132 47.234C7.76892 47.332 7.86664 47.4791 7.9155 47.6507L8.28196 48.7537C8.33082 48.9253 8.35525 49.1704 8.13538 49.2194L7.2803 49.2685C7.036 49.2685 6.86498 49.0724 6.79169 48.8763L6.4008 47.8223C6.35194 47.6507 6.35194 47.4056 6.57182 47.3565L7.45132 47.234ZM5.74117 47.4056C5.98548 47.3811 6.15649 47.6262 6.20536 47.7978L6.59625 48.8518C6.64511 48.9988 6.66954 49.2685 6.44966 49.293L5.69231 49.3175C5.47244 49.3175 5.30142 49.0969 5.25256 48.9253L4.86167 47.9203C4.81281 47.7732 4.78838 47.5036 5.00825 47.4791L5.74117 47.4056ZM10.6029 43.9249C10.8716 43.9004 11.1159 44.072 11.1892 44.3416C11.2869 44.7828 11.3602 45.1995 11.4579 45.6162C11.5068 45.8368 11.4579 46.131 11.1892 46.229C10.8227 46.278 10.4563 46.3761 10.0898 46.4006C9.82109 46.4251 9.62564 46.2045 9.52792 45.9839L9.21032 44.7828C9.16146 44.5377 9.25919 44.2926 9.50349 44.1945L10.6029 43.9249ZM8.52627 44.4397C8.77057 44.3906 8.94159 44.6112 9.01488 44.8318L9.30805 46.0329C9.35691 46.2535 9.30805 46.5232 9.06374 46.5722L8.18424 46.7192C7.93993 46.7438 7.79335 46.5232 7.74449 46.3025L7.64676 45.8613L7.42689 45.1505C7.37803 44.9299 7.42689 44.6848 7.67119 44.6112H7.81778L8.52627 44.4397ZM6.69397 44.8073C6.96271 44.7828 7.13372 45.0034 7.20701 45.1995L7.54904 46.3271C7.5979 46.5232 7.57347 46.7928 7.32916 46.8173L6.47409 46.9153C6.22979 46.9398 6.05877 46.6947 5.98548 46.5232L5.64345 45.4446C5.59459 45.2731 5.59459 45.0034 5.8389 44.9544L6.69397 44.8073ZM4.98382 45.1015C5.22813 45.077 5.37471 45.3221 5.44801 45.4937L5.79003 46.5722C5.8389 46.7438 5.8389 47.0134 5.61902 47.0379L4.86167 47.1114C4.64179 47.1359 4.49521 46.8908 4.42192 46.7192L4.07989 45.6898C4.03103 45.5427 4.0066 45.2731 4.22647 45.224L4.98382 45.1015ZM3.51798 45.3221C3.73786 45.2976 3.88444 45.5427 3.93331 45.6898L4.27533 46.7192C4.3242 46.8663 4.34863 47.1359 4.15318 47.1605L3.51798 47.2095C3.32254 47.2095 3.17596 46.9644 3.12709 46.8418L2.78507 45.8613C2.7362 45.7388 2.68734 45.4692 2.90722 45.4201L3.51798 45.3221ZM17.7855 39.1696C18.0786 39.1206 18.3718 39.2432 18.4695 39.5373L18.7383 40.8364C18.7871 41.1796 18.5428 41.4247 18.2497 41.5228L16.7594 41.8414C16.4662 41.8904 16.1731 41.7434 16.0753 41.4247C16.002 41.008 15.9043 40.5668 15.8799 40.1256C15.8555 39.8069 16.0998 39.5863 16.3685 39.4883C16.8327 39.3657 17.2969 39.2677 17.7855 39.1696ZM12.5085 40.6158C12.7528 40.5668 12.9482 40.7139 12.9971 40.959L13.1437 42.2091C13.1681 42.4787 13.0215 42.7729 12.7528 42.8709L11.6778 43.1896C11.5801 43.2141 11.5068 43.1896 11.4335 43.1651C11.2869 43.0915 11.1892 42.969 11.1403 42.7974L10.896 41.5718C10.8716 41.3022 11.0182 41.057 11.2869 40.959L12.484 40.6158H12.5085ZM10.0898 41.3267C10.3341 41.2777 10.554 41.4247 10.6273 41.6698L10.8716 42.8709C10.9205 43.1405 10.7739 43.4102 10.5051 43.4837L9.4302 43.7533C9.18589 43.8024 8.99045 43.6063 8.94159 43.3857L8.74614 42.2826C8.67285 41.9885 8.795 41.7189 9.03931 41.6453L10.0898 41.3267ZM7.93993 41.8904C8.20867 41.8414 8.40411 42.0375 8.47741 42.2826L8.5507 42.6013L8.69728 43.4592C8.72171 43.6798 8.64842 43.9494 8.42854 44.023L7.9155 44.17L7.50018 44.2436C7.25587 44.2681 7.06043 44.072 6.98714 43.8514L6.66954 42.6993C6.62068 42.4787 6.69397 42.2091 6.93827 42.1356L7.93993 41.8904ZM6.00991 42.3562C6.25422 42.3071 6.44966 42.5523 6.49852 42.7484L6.81612 43.9004C6.86498 44.0965 6.84055 44.3661 6.57182 44.4397L5.71674 44.5867C5.47244 44.6112 5.30142 44.3906 5.25256 44.1945L4.93496 43.0915C4.8861 42.8954 4.91053 42.6258 5.15484 42.5768L6.00991 42.3562ZM4.3242 42.7484C4.5685 42.6993 4.71509 42.9444 4.76395 43.116L5.08155 44.2191C5.13041 44.3906 5.13041 44.6603 4.8861 44.7093L4.12875 44.8318C3.90887 44.8564 3.76229 44.6112 3.71343 44.4642L3.39583 43.4102C3.34697 43.2386 3.34697 42.969 3.56685 42.9199L4.3242 42.7484ZM2.85836 43.067C3.07823 43.018 3.20039 43.2876 3.24925 43.4347L3.56685 44.4887C3.61571 44.6358 3.64014 44.9054 3.42026 44.9544L2.78507 45.0525C2.58962 45.077 2.46747 44.8318 2.41861 44.6848L2.10101 43.6798C2.05215 43.5327 2.02772 43.2631 2.22316 43.2141L2.85836 43.067ZM20.6194 35.4929C20.9126 35.4194 21.2546 35.4929 21.3279 35.8116L21.4745 37.1352C21.4989 37.5029 21.1813 37.7725 20.8637 37.8705L19.2757 38.3117C18.9826 38.3853 18.665 38.2872 18.5917 37.9441C18.5428 37.5029 18.5184 37.0862 18.494 36.6449C18.494 36.3018 18.7627 36.0567 19.0803 35.9341L20.6194 35.4929ZM17.5412 36.4488C17.7855 36.3998 18.1275 36.4734 18.1519 36.7675C18.2008 37.1842 18.2252 37.6254 18.2497 38.0666C18.2741 38.3117 18.1275 38.5078 17.9565 38.6549C17.8832 38.7039 17.8099 38.7284 17.7366 38.7529C17.2724 38.851 16.8083 38.9736 16.3441 39.0716C16.0998 39.1206 15.7822 39.0226 15.7577 38.7529C15.7333 38.6059 15.7333 38.4343 15.7089 38.2872C15.6844 38.0421 15.66 37.8215 15.66 37.5764C15.66 37.2577 15.9043 37.0126 16.1731 36.8901L17.5412 36.4488ZM11.9954 38.0421C12.2886 37.9931 12.5329 38.1402 12.6306 38.4343L12.7283 38.851L12.8749 39.6109C12.9238 39.905 12.7039 40.1256 12.4352 40.2237L11.1892 40.5668C10.9449 40.6158 10.7006 40.5178 10.6517 40.2482L10.6273 40.0766L10.383 39.0226C10.3341 38.7284 10.4807 38.4833 10.7495 38.3853L11.9954 38.0421ZM9.55235 38.7039C9.82109 38.6549 10.041 38.8265 10.1143 39.0716L10.383 40.2727C10.4074 40.5913 10.2608 40.8119 10.0165 40.91L9.62565 41.0325L8.94159 41.2041C8.67285 41.2531 8.47741 41.057 8.40411 40.8119L8.13538 39.6109C8.08651 39.3412 8.20867 39.0961 8.45297 38.9981L9.55235 38.7039ZM7.3536 39.3167C7.62233 39.2432 7.81778 39.4638 7.86664 39.6844L8.13538 40.8855C8.18424 41.1061 8.11095 41.4002 7.84221 41.4737L6.86498 41.7189C6.59625 41.7679 6.42523 41.5473 6.37637 41.3512L6.10763 40.1746C6.05877 39.954 6.13206 39.6844 6.37637 39.5863L7.3536 39.3167ZM5.42358 39.856C5.66788 39.807 5.8389 40.0276 5.88776 40.2237L6.15649 41.3757C6.20536 41.5718 6.15649 41.8659 5.91219 41.9395L5.05712 42.1356C4.81281 42.1846 4.66622 41.9395 4.61736 41.7679L4.34863 40.6404C4.29977 40.4443 4.34863 40.1746 4.5685 40.1011L5.42358 39.856ZM3.73786 40.3462C3.98217 40.2972 4.10432 40.5423 4.15318 40.7139L4.42192 41.8169C4.47078 41.9885 4.44635 42.2826 4.22647 42.3317L3.46912 42.5032C3.24925 42.5523 3.10266 42.2826 3.07823 42.1356L2.8095 41.057C2.76064 40.8855 2.78507 40.6158 3.00494 40.5423L3.73786 40.3462ZM2.27202 40.7874C2.4919 40.7384 2.61405 41.008 2.63848 41.1306L2.90722 42.2091C2.95608 42.3807 2.95608 42.6503 2.7362 42.6993L2.10101 42.8464C1.90556 42.8709 1.78341 42.6258 1.73455 42.4787L1.46581 41.4492C1.44138 41.3022 1.41695 41.0325 1.61239 40.959L2.27202 40.7874ZM20.2774 32.6986C20.595 32.625 20.937 32.7231 21.0348 33.0662L21.1813 33.7771L21.2058 34.3654C21.2058 34.7085 20.8882 34.9536 20.595 35.0517L19.0314 35.5174C18.7871 35.5909 18.4451 35.5174 18.4207 35.2233L18.1764 33.8751C18.1275 33.532 18.3962 33.2623 18.7138 33.1398L20.2774 32.6986ZM14.1697 34.4634C14.4873 34.3899 14.7561 34.5369 14.8294 34.8311L15.0737 36.1547C15.1225 36.4489 14.9271 36.743 14.6095 36.841L13.2414 37.2087C12.9482 37.2822 12.6795 37.1107 12.6062 36.841L12.3619 35.5419C12.313 35.2478 12.484 34.9536 12.8016 34.8556L14.1697 34.4634ZM11.4824 35.2723C11.7755 35.1988 12.0198 35.3703 12.0931 35.64L12.3374 36.9146C12.3863 37.1842 12.2153 37.4783 11.9221 37.5764L10.7006 37.9196C10.4074 37.9931 10.1876 37.797 10.1143 37.5519L9.86995 36.3018C9.82109 36.0322 9.96767 35.738 10.2608 35.64L11.4824 35.2723ZM9.03931 36.0322C9.30805 35.9586 9.52792 36.1547 9.60121 36.3998L9.84552 37.6499C9.89438 37.9196 9.77223 38.1892 9.47906 38.2872L8.37968 38.6059C8.11095 38.6794 7.9155 38.4588 7.84221 38.2382L7.62233 37.0371C7.57347 36.792 7.69562 36.4979 7.96436 36.3998L9.03931 36.0322ZM6.86498 36.7185C7.13372 36.6449 7.32917 36.8655 7.3536 37.0616L7.57347 38.2627C7.62233 38.5078 7.52461 38.7775 7.25587 38.8755L6.27865 39.1696C6.00991 39.2432 5.8389 38.9981 5.81447 38.802L5.59459 37.6254C5.57016 37.4048 5.64345 37.1107 5.88776 37.0371L6.86498 36.7185ZM4.93496 37.3558C5.17927 37.2822 5.35028 37.5029 5.37471 37.6989L5.59459 38.851C5.64345 39.0716 5.57016 39.3412 5.32585 39.4393L4.47078 39.6844C4.22647 39.7334 4.07989 39.5128 4.05546 39.3412L3.83558 38.2137C3.81115 38.0176 3.86001 37.748 4.07989 37.6499L4.93496 37.3558ZM3.24925 37.9441C3.46912 37.8705 3.61571 38.1156 3.64014 38.2872L3.86001 39.4148C3.88444 39.6109 3.86001 39.8805 3.64014 39.954L2.90722 40.1746C2.68734 40.2236 2.56519 39.9785 2.51633 39.8315L2.29645 38.7529C2.27202 38.5569 2.29645 38.3117 2.4919 38.2137L3.24925 37.9441ZM13.7056 31.6446C13.9987 31.5465 14.2919 31.6936 14.3408 31.9877L14.5606 33.2868C14.6095 33.581 14.3896 33.8751 14.0965 33.9732L12.7528 34.3899C12.4596 34.4634 12.1909 34.3163 12.142 34.0467L11.9466 32.7721C11.9221 32.478 12.0931 32.1838 12.3863 32.0858L13.7056 31.6446ZM11.0426 32.527C11.3358 32.4289 11.5801 32.6005 11.629 32.8701L11.8244 34.1448C11.8488 34.4389 11.7022 34.7085 11.4091 34.8066L10.1875 35.1988C9.89438 35.2723 9.67451 35.1007 9.62565 34.8556L9.4302 33.63C9.40577 33.3604 9.55235 33.0662 9.82109 32.9682L11.0426 32.527ZM8.62399 33.3604C8.89273 33.2868 9.1126 33.4584 9.16146 33.7035L9.35691 34.9291C9.38134 35.1988 9.25919 35.4684 8.99045 35.5664L7.89107 35.9341C7.62233 36.0076 7.42689 35.8115 7.37803 35.5909L7.18258 34.3899C7.15815 34.1448 7.2803 33.8506 7.54904 33.7526L8.62399 33.3604ZM6.44966 34.1448C6.7184 34.0712 6.88941 34.2673 6.93827 34.4634L7.13372 35.6645C7.15815 35.9096 7.06043 36.1792 6.79169 36.2773L5.81447 36.5959C5.57016 36.6695 5.39914 36.4488 5.35028 36.2528L5.17927 35.1007C5.15484 34.8556 5.25256 34.586 5.49687 34.4879L6.44966 34.1448ZM4.54407 34.8801C4.78838 34.8066 4.93496 35.0272 4.98382 35.1988L5.15484 36.3508C5.17927 36.5714 5.10598 36.841 4.86167 36.9391L4.0066 37.2332C3.76229 37.3068 3.64014 37.0616 3.59128 36.8901L3.42026 35.787C3.39583 35.5664 3.44469 35.2968 3.689 35.1988L4.54407 34.8801ZM16.8571 27.4776C17.1259 27.3795 17.59 27.355 17.59 27.7227C17.5412 28.2374 17.4679 28.7277 17.419 29.2179C17.419 29.2914 17.3946 29.3405 17.3702 29.414C17.2724 29.7327 17.0281 29.9778 16.7105 30.1003L15.6112 30.5415L15.0981 30.7131C14.8049 30.7867 14.5118 30.6641 14.4629 30.37L14.3896 29.8307L14.4385 28.9973C14.4873 28.6296 14.7805 28.3355 15.1225 28.1639L16.2463 27.7227L16.8571 27.4776ZM13.388 28.8747C13.6811 28.7767 14.0232 28.8502 14.0232 29.1689L13.9987 29.6101L14.1209 30.4925C14.1453 30.8112 13.9499 31.0808 13.6323 31.2034L12.2886 31.6446C12.0198 31.7181 11.7511 31.571 11.7022 31.3014L11.5312 30.0513C11.5068 29.7572 11.7022 29.4875 11.9954 29.365L13.0948 28.9728L13.388 28.8747ZM10.6762 29.8552C10.9449 29.7572 11.1892 29.9042 11.2381 30.1739L11.4091 31.424C11.4335 31.7181 11.2625 31.9877 10.9693 32.1103L9.7478 32.527C9.47906 32.6005 9.25919 32.4534 9.21032 32.2083L9.06374 30.9827C9.03931 30.7131 9.21032 30.4435 9.47906 30.3209L10.6762 29.8552ZM8.28196 30.7621C8.5507 30.6641 8.74614 30.8357 8.795 31.0808L8.94159 32.2819C8.96602 32.5515 8.81943 32.8211 8.5507 32.9437L7.45132 33.3359C7.18258 33.4094 6.98714 33.2378 6.96271 33.0172L6.81612 31.8407C6.79169 31.571 6.91384 31.3014 7.18258 31.2034L8.28196 30.7621ZM15.3913 42.6748C15.7089 42.6258 15.9776 42.8219 16.0753 43.116C16.1731 43.6063 16.2952 44.072 16.3929 44.5622C16.4418 44.8809 16.2708 45.175 15.9776 45.2731L14.6339 45.5427C14.3163 45.5672 14.072 45.3711 13.9743 45.077L13.6811 43.6798C13.6567 43.3857 13.8033 43.0915 14.072 42.9935L15.3913 42.6748ZM12.8261 43.3366C13.1192 43.2876 13.3147 43.4837 13.388 43.7533C13.4857 44.2191 13.5834 44.6848 13.6811 45.126C13.73 45.3956 13.6323 45.6898 13.3391 45.7878C12.9726 45.8613 12.6062 45.9594 12.2397 46.0084C11.971 46.0574 11.7755 45.7878 11.7022 45.5672C11.6045 45.126 11.5068 44.7093 11.4335 44.2681C11.4091 44.023 11.5068 43.7288 11.7511 43.6308L12.8261 43.3366ZM14.9515 39.856C15.2203 39.807 15.489 39.9295 15.5379 40.1991C15.5867 40.6403 15.66 41.057 15.7333 41.4983C15.7577 41.8169 15.5623 42.0865 15.2691 42.1846L13.9499 42.5277C13.6811 42.5768 13.4368 42.4052 13.3635 42.1356C13.3147 41.7189 13.2414 41.3022 13.2169 40.8855C13.1925 40.5913 13.4124 40.3462 13.6567 40.2482C14.1209 40.1011 14.5362 39.9785 14.9515 39.856ZM14.7072 37.3068C14.9027 37.2577 15.1225 37.3068 15.2691 37.4538C15.318 37.5274 15.3424 37.5764 15.3424 37.6744L15.3668 38.2872C15.3668 38.4588 15.3913 38.6549 15.4157 38.8265C15.4157 39.1206 15.1714 39.3412 14.9271 39.4393L13.6811 39.8069C13.4857 39.856 13.2902 39.7824 13.1925 39.5863L12.9971 38.7039L12.9238 38.3117C12.8994 38.0176 13.0704 37.748 13.3391 37.6499L14.7072 37.3068ZM17.1014 33.581C17.3946 33.5075 17.7366 33.63 17.8099 33.9487L18.0786 35.2968C18.0542 35.64 17.7855 35.8851 17.5167 35.9831L16.735 36.2528L16.0998 36.4243C15.8066 36.4979 15.489 36.3508 15.4157 36.0567L15.1714 34.733C15.147 34.4144 15.3668 34.1448 15.66 34.0222L17.1014 33.581ZM20.4973 28.9973C20.6194 28.9483 20.7416 28.9483 20.8882 28.9483C21.0348 28.9728 21.1569 29.0218 21.2058 29.1689C21.2302 29.8552 21.1813 30.419 21.1325 30.9582C21.0348 31.4485 20.7172 31.8407 20.253 32.1103L19.8377 32.2819L18.6161 32.625C18.2985 32.6741 17.9809 32.5515 17.8832 32.2574L17.761 31.522V30.8112C17.7855 30.5906 17.8832 30.3945 18.0298 30.1984C18.1764 30.0513 18.3474 29.9287 18.5428 29.8307L20.4973 28.9973ZM16.6861 30.6396C17.0037 30.517 17.3457 30.6396 17.3702 30.9827V31.3749L17.5412 32.3799C17.5656 32.6986 17.3457 32.9927 17.0281 33.0908L15.5623 33.532C15.2691 33.6055 14.9515 33.4584 14.9027 33.1643L14.6828 31.8652C14.6584 31.5465 14.8538 31.2769 15.1714 31.1543L16.1975 30.8357L16.6861 30.6396ZM25.1391 23.7518C25.3345 23.6783 25.701 23.6047 25.701 23.9234C25.6766 24.3891 25.5789 24.8793 25.4567 25.3451C25.3101 25.8843 24.8948 26.3255 24.455 26.6932C23.8687 26.9383 23.2824 27.2079 22.696 27.4531C22.4517 27.5266 21.9875 27.5756 22.012 27.2079C22.0364 26.7667 22.1097 26.301 22.1586 25.8598C22.183 25.7127 22.2563 25.5657 22.354 25.4676C22.6227 25.198 22.8915 24.9774 23.2091 24.7813C23.8443 24.4136 24.4795 24.0705 25.1391 23.7518ZM21.0348 25.7863C21.2791 25.7127 21.7432 25.6637 21.7432 26.0069C21.7188 26.4726 21.6455 26.9383 21.5478 27.404C21.4256 27.8698 21.0103 28.2129 20.5706 28.4335L20.3263 28.5561L18.6161 29.2914C18.323 29.3895 17.8832 29.3895 17.8832 29.0218L18.0298 27.5511C18.0786 27.257 18.2985 27.0119 18.5673 26.8403C18.6894 26.7667 18.7871 26.7177 18.9093 26.6442L21.0348 25.7863ZM11.3114 46.6702C11.5801 46.6457 11.7511 46.8908 11.8488 47.1359C11.971 47.5772 12.1176 47.9939 12.2642 48.4105C12.313 48.6312 12.313 48.9008 12.0443 48.9498C11.6045 48.9988 11.2625 49.0233 10.9449 49.0479C10.6762 49.0479 10.4563 48.8273 10.3586 48.6066L9.96767 47.4056C9.91881 47.185 9.99211 46.9153 10.2364 46.8418L11.2869 46.6947L11.3114 46.6702Z" fill="black"/>
<path d="M65.3764 52.8471V34.684C65.3764 34.5614 65.2787 34.4634 65.0588 34.3898C64.8634 34.3163 64.6191 34.2918 64.3748 34.2918C64.1549 34.2918 63.935 34.3163 63.7151 34.3898C63.5197 34.4634 63.3975 34.5614 63.3975 34.684V52.8471C63.3975 54.2688 63.0555 55.5679 62.3959 56.818C61.7363 58.0436 60.7102 58.9505 59.3665 59.5143C59 59.6369 58.6824 59.7349 58.3648 59.8084C58.0472 59.882 57.7296 59.931 57.3632 59.98C57.241 60.0045 57.1433 60.1026 57.1189 60.2987C57.07 60.4948 57.07 60.6909 57.07 60.9115C57.0944 61.1321 57.1189 61.3282 57.1922 61.4997C57.2655 61.6713 57.3632 61.7694 57.4609 61.7694C57.8518 61.7694 58.2671 61.7204 58.7313 61.5978C59.1955 61.4752 59.6108 61.3527 59.9528 61.2301C60.8079 60.887 61.5408 60.4457 62.2249 59.833C62.8845 59.2447 63.4464 58.5829 63.9106 57.823C64.3748 57.0876 64.7168 56.2788 64.9611 55.4454C65.2543 54.612 65.3764 53.7541 65.3764 52.8471ZM87.1197 51.4254V41.9884L86.9731 41.7678C86.9242 40.5668 86.6555 39.4392 86.1425 38.3607C85.6539 37.3067 84.9698 36.3753 84.1392 35.5909C83.3085 34.8065 82.3557 34.1937 81.2808 33.7525C80.2058 33.3113 79.0576 33.0907 77.8605 33.0907C76.6145 33.0907 75.4418 33.3358 74.3425 33.8261C73.2431 34.3163 72.2659 34.9781 71.4352 35.787C70.6046 36.5959 69.945 37.5763 69.4808 38.7039C69.0166 39.8314 68.7723 41.008 68.7723 42.2581C68.7723 43.7533 69.0655 45.0769 69.6274 46.229C70.2137 47.4055 70.9466 48.386 71.8994 49.1704C72.8278 49.9547 73.9027 50.5675 75.0754 50.9352C76.2725 51.3274 77.4696 51.45 78.6911 51.3519C79.9127 51.2539 81.0853 50.8862 82.2336 50.2734C83.3818 49.6606 84.3835 48.7537 85.263 47.5526V51.45C85.263 51.5725 85.3607 51.6706 85.5561 51.7441C85.7516 51.8176 85.947 51.8421 86.1913 51.8421C86.4112 51.8421 86.6311 51.8176 86.8265 51.7441C87.0464 51.6461 87.1197 51.548 87.1197 51.4254ZM85.2141 42.2336C85.2141 43.2385 85.0187 44.1945 84.6278 45.0769C84.2369 45.9839 83.7238 46.7682 83.0642 47.43C82.4046 48.0919 81.6228 48.6311 80.7189 48.9988C79.8149 49.391 78.8866 49.5871 77.8849 49.5871C76.8833 49.5871 75.9305 49.391 75.051 48.9988C74.147 48.6066 73.3897 48.0919 72.7301 47.43C72.0704 46.7682 71.5574 45.9839 71.1665 45.0769C70.7756 44.17 70.5801 43.2385 70.5801 42.2336C70.5801 41.2041 70.7756 40.2481 71.1665 39.3657C71.5574 38.4833 72.0704 37.6989 72.7301 37.0371C73.3897 36.3753 74.1715 35.836 75.051 35.4683C75.9305 35.0762 76.8833 34.8801 77.9093 34.8801C78.911 34.8801 79.8638 35.0762 80.7433 35.4683C81.6472 35.8605 82.4046 36.3753 83.0642 37.0371C83.7238 37.6989 84.2369 38.4833 84.6278 39.3902C85.0187 40.2726 85.2141 41.2286 85.2141 42.2336ZM98.0646 51.4254C98.0646 51.3519 98.0891 51.2294 98.1135 51.0578C98.1379 50.8862 98.1623 50.7391 98.1623 50.5675C98.1623 50.396 98.1379 50.2734 98.1135 50.1508C98.0646 50.0283 98.0158 49.9547 97.8936 49.9302C97.5272 49.8812 97.2096 49.8322 96.892 49.7587C96.5744 49.6851 96.2568 49.5871 95.8903 49.4645C94.5466 48.9007 93.5205 47.9938 92.8365 46.7682C92.1524 45.5426 91.8104 44.219 91.8104 42.7973V24.6342C91.8104 24.5116 91.7371 24.4136 91.6149 24.3646C91.4928 24.3155 91.3462 24.291 91.1996 24.291C91.053 24.291 90.882 24.291 90.711 24.3155C90.54 24.34 90.4178 24.34 90.3445 24.34C90.1735 24.34 90.0758 24.4381 90.0758 24.6587V42.8218C90.0758 43.9739 90.2468 45.0769 90.5888 46.1309C90.9309 47.1849 91.4439 48.1164 92.1035 48.9253C92.7632 49.7341 93.5694 50.396 94.5222 50.8862C95.475 51.3764 96.5499 51.6706 97.747 51.7441L98.0646 51.4254ZM116.314 51.4254V41.9884L116.168 41.7678C116.119 40.5668 115.85 39.4392 115.337 38.3607C114.848 37.3067 114.164 36.3753 113.334 35.5909C112.503 34.8065 111.55 34.1937 110.475 33.7525C109.4 33.3113 108.252 33.0907 107.055 33.0907C105.809 33.0907 104.636 33.3358 103.537 33.8261C102.438 34.3163 101.46 34.9781 100.63 35.787C99.7992 36.5959 99.1396 37.5763 98.6754 38.7039C98.2112 39.8314 97.9669 41.008 97.9669 42.2581C97.9669 43.7533 98.2601 45.0769 98.822 46.229C99.3839 47.381 100.141 48.386 101.094 49.1704C102.022 49.9547 103.097 50.5675 104.27 50.9352C105.467 51.3274 106.664 51.45 107.886 51.3519C109.107 51.2539 110.28 50.8862 111.428 50.2734C112.576 49.6606 113.578 48.7537 114.458 47.5526V51.45C114.458 51.5725 114.555 51.6706 114.751 51.7441C114.946 51.8176 115.142 51.8421 115.386 51.8421C115.63 51.8421 115.826 51.8176 116.021 51.7441C116.217 51.6461 116.314 51.548 116.314 51.4254ZM114.409 42.2336C114.409 43.2385 114.213 44.1945 113.822 45.0769C113.431 45.9839 112.918 46.7682 112.259 47.43C111.599 48.0919 110.817 48.6311 109.913 48.9988C109.01 49.391 108.081 49.5871 107.08 49.5871C106.078 49.5871 105.125 49.391 104.246 48.9988C103.342 48.6066 102.584 48.0919 101.925 47.43C101.265 46.7682 100.752 45.9839 100.361 45.0769C99.9702 44.17 99.7748 43.2385 99.7748 42.2336C99.7748 41.2041 99.9702 40.2481 100.361 39.3657C100.752 38.4833 101.265 37.6989 101.925 37.0371C102.584 36.3753 103.366 35.836 104.246 35.4683C105.125 35.0762 106.078 34.8801 107.104 34.8801C108.106 34.8801 109.058 35.0762 109.938 35.4683C110.842 35.8605 111.599 36.3753 112.259 37.0371C112.918 37.6989 113.431 38.4833 113.822 39.3902C114.213 40.2726 114.409 41.2286 114.409 42.2336ZM86.5089 61.6958H85.3118V56.2542C86.0692 56.2297 86.5578 56.2052 86.7532 56.2052C87.535 56.2052 88.1702 56.4258 88.6344 56.8915C89.0986 57.3573 89.3185 57.9701 89.3185 58.7299C89.3185 60.7154 88.3901 61.6958 86.5089 61.6958ZM86.2646 57.1122V60.8379C86.4112 60.8624 86.5822 60.8624 86.7777 60.8624C87.2663 60.8624 87.6327 60.6909 87.9259 60.3232C88.1946 59.98 88.3412 59.4653 88.3412 58.828C88.3412 57.6759 87.8038 57.0876 86.7288 57.0876C86.6067 57.0876 86.4601 57.0876 86.2646 57.1122ZM95.4994 60.0045H92.6654C92.6899 60.3232 92.7876 60.5683 92.9831 60.7399C93.1785 60.9115 93.4472 61.0095 93.7893 61.0095C94.2046 61.0095 94.5222 60.887 94.7421 60.6909L95.1085 61.4017C94.7909 61.6713 94.3023 61.7939 93.6427 61.7939C93.0319 61.7939 92.5677 61.6223 92.2013 61.2546C91.8592 60.9115 91.6638 60.3967 91.6638 59.7594C91.6638 59.1221 91.8592 58.6319 92.2501 58.2397C92.641 57.8475 93.1052 57.6514 93.6427 57.6514C94.229 57.6514 94.6688 57.823 95.0352 58.1662C95.4017 58.5093 95.5483 58.9505 95.5483 59.4898C95.5727 59.5878 95.5483 59.7594 95.4994 60.0045ZM92.6899 59.2937H94.6443C94.571 58.7054 94.2534 58.4113 93.6915 58.4113C93.1541 58.4358 92.812 58.7299 92.6899 59.2937ZM97.8936 61.4507L98.2112 60.7154C98.4799 60.936 98.7975 61.034 99.1396 61.034C99.506 61.034 99.677 60.9115 99.677 60.6418C99.677 60.4948 99.6282 60.3722 99.506 60.2742C99.4083 60.1761 99.1884 60.0536 98.8708 59.931C98.1868 59.6369 97.8447 59.2447 97.8447 58.7299C97.8447 58.3868 97.9669 58.1171 98.2356 57.921C98.5044 57.7249 98.822 57.6269 99.2373 57.6269C99.6526 57.6269 100.044 57.7249 100.41 57.8965L100.141 58.6074C99.9458 58.4358 99.6526 58.3377 99.2862 58.3377C98.9686 58.3377 98.7975 58.4603 98.7975 58.7299C98.7975 58.828 98.8464 58.926 98.9686 58.9996C99.0663 59.0731 99.3106 59.1956 99.6526 59.3182C99.9946 59.4653 100.263 59.6123 100.41 59.8084C100.557 60.0045 100.63 60.2496 100.63 60.5193C100.63 60.887 100.483 61.1811 100.215 61.4017C99.9458 61.6223 99.5793 61.7204 99.0907 61.7204C98.822 61.7204 98.6265 61.6958 98.4555 61.6468C98.3578 61.6713 98.1379 61.5733 97.8936 61.4507ZM103.488 61.6958V58.4848H102.975V57.7249H104.417V61.6958H103.488ZM103.952 56.1807C104.099 56.1807 104.221 56.2297 104.343 56.3278C104.441 56.4258 104.49 56.5484 104.49 56.72C104.49 56.867 104.441 56.9896 104.343 57.1122C104.246 57.2102 104.123 57.2592 103.952 57.2592C103.806 57.2592 103.684 57.2102 103.562 57.1122C103.464 57.0141 103.415 56.8915 103.415 56.72C103.415 56.5729 103.464 56.4503 103.562 56.3278C103.684 56.2297 103.806 56.1807 103.952 56.1807ZM107.031 62.7253L107.617 61.99C107.935 62.2841 108.301 62.4312 108.692 62.4312C108.961 62.4312 109.181 62.3822 109.352 62.3086C109.523 62.2351 109.62 62.1125 109.62 61.99C109.62 61.7449 109.425 61.6468 109.058 61.6468C108.961 61.6468 108.79 61.6713 108.594 61.6958C108.399 61.7204 108.228 61.7449 108.13 61.7449C107.495 61.7449 107.177 61.5243 107.177 61.0585C107.177 60.936 107.226 60.7889 107.348 60.6663C107.446 60.5438 107.568 60.4457 107.715 60.3967C107.275 60.1026 107.031 59.6859 107.031 59.1466C107.031 58.7299 107.177 58.3622 107.495 58.0926C107.812 57.823 108.179 57.6759 108.643 57.6759C109.01 57.6759 109.303 57.7495 109.547 57.872L109.913 57.4553L110.549 58.0436L110.109 58.3623C110.256 58.5829 110.329 58.877 110.329 59.1956C110.329 59.6369 110.182 60.0045 109.913 60.2742C109.645 60.5438 109.303 60.6909 108.863 60.6909C108.79 60.6909 108.716 60.6909 108.594 60.6663L108.448 60.6418C108.423 60.6418 108.374 60.6664 108.252 60.7154C108.13 60.7644 108.081 60.8134 108.081 60.887C108.081 60.985 108.154 61.034 108.325 61.034C108.399 61.034 108.521 61.0095 108.716 60.985C108.887 60.936 109.058 60.936 109.181 60.936C110.084 60.936 110.524 61.3036 110.524 62.0145C110.524 62.4067 110.353 62.7253 109.987 62.9704C109.62 63.191 109.181 63.3136 108.692 63.3136C108.057 63.2646 107.519 63.093 107.031 62.7253ZM107.959 59.1221C107.959 59.3672 108.032 59.5388 108.154 59.6859C108.277 59.833 108.448 59.9065 108.668 59.9065C108.887 59.9065 109.058 59.833 109.181 59.7104C109.303 59.5633 109.352 59.3917 109.352 59.1466C109.352 58.9505 109.278 58.7789 109.156 58.6319C109.034 58.4848 108.863 58.4358 108.668 58.4358C108.448 58.4358 108.277 58.5093 108.154 58.6319C108.008 58.7299 107.959 58.9015 107.959 59.1221ZM115.508 61.6958V59.3917C115.508 59.0486 115.435 58.8035 115.313 58.6564C115.191 58.5093 114.971 58.4113 114.677 58.4113C114.531 58.4113 114.384 58.4603 114.238 58.5338C114.091 58.6074 113.969 58.7054 113.871 58.828V61.6958H112.943V57.7249H113.603L113.774 58.0926C114.018 57.7985 114.409 57.6514 114.897 57.6514C115.362 57.6514 115.752 57.7985 116.021 58.0681C116.29 58.3622 116.436 58.7544 116.436 59.2447V61.6958H115.508Z" fill="black"/>
</svg>
