<svg xmlns="http://www.w3.org/2000/svg" viewBox="0 0 483 261.1"><path fill="#ACD05E" fill-rule="evenodd" d="M191 118.7c1.5-.5 3.4-.2 4 1.3l2.1 5.9c.5 1.5-.8 2.9-2.3 3.5l-7.9 2.7c-1.5.5-3.4.2-4-1.3l-2.1-6c-.5-1.5.8-2.9 2.3-3.5l7.9-2.6zm4.6 12.2c1.5-.4 3.3-.2 4 1.3l2.1 5.9c.4 1.6-.9 2.9-2.3 3.5l-1.9.6-5.2 1.5c-1.5.3-3.2-.1-4-1.4-.9-1.8-1.9-3.6-2.8-5.4-.3-1.8 1-2.9 2.3-3.4l7.8-2.6zm-81.4 24.4c1.4-.3 3.2-.3 3.9 1.1l1.8 5.6c.3 1.7-1.2 2.9-2.6 3.4l-8.2 2.5c-1.4.4-3.3.2-3.9-1.3-.5-1.9-1-3.7-1.4-5.6-.2-1.6 1.3-2.7 2.6-3.2 2.5-.9 5.1-1.7 7.8-2.5zm76.1 51c1.3-.4 3-.4 3.5 1.1.3 1.8.7 3.6.9 5.4 0 1.6-1.3 2.6-2.6 3.2-2.5 1-5 1.9-7.6 2.8-1.2.4-3 .5-3.6-.9l-1.2-5.3c-.2-1.7 1.3-2.8 2.7-3.4 2.7-.9 5.3-1.9 7.9-2.9zm-16.4 5.8c1.4-.4 3.3-.4 4 1.2l1.3 5.3c.1 1.6-1.5 2.6-2.8 3.1-2.7.9-5.4 1.7-8.1 2.5-1.3.3-3.2.4-3.9-1l-1.7-5.1c-.3-1.7 1.4-2.7 2.8-3.2 2.7-1 5.6-1.9 8.4-2.8zm27.8-24.5c1.3-.4 2.7 0 3.3 1.4.5 1.9 1 3.9 1.5 5.9.2 1.5-.8 2.8-2.1 3.5-2.3 1-4.5 2-6.8 2.9-1.3.4-2.9.3-3.5-1.2-.5-2-1-4.1-1.6-6.1-.3-1.6.8-3 2.2-3.6 2.4-1 4.7-1.9 7-2.8zm-14.8 5.6c1.5-.4 3.2-.2 3.9 1.4.6 2 1.1 4 1.6 6.1.2 1.7-1.1 2.9-2.5 3.6-2.6 1-5.3 1.9-7.9 2.9-1.5.4-3.3.3-4-1.2-.6-2.1-1.2-4.1-1.8-6.2-.3-1.8 1.1-3.1 2.6-3.7 2.7-1 5.4-1.9 8.1-2.9zm-17 5.7c1.6-.4 3.5-.2 4.3 1.4.6 2 1.2 4.1 1.8 6.2.2 1.8-1.3 2.9-2.7 3.5-2.8.9-5.7 1.8-8.6 2.7-1.5.4-3.5.3-4.3-1.3l-2.1-6.1c-.4-1.8 1.2-3.1 2.7-3.6 3.1-.9 6-1.8 8.9-2.8zm-18.2 5.5c1.7-.4 3.7-.2 4.5 1.5l2.1 6c.3 1.7-1.3 2.8-2.7 3.3-2.9.8-5.8 1.5-8.7 2.3-1.6.3-3.5.1-4.4-1.4l-2.4-5.8c-.5-1.7 1.1-2.9 2.6-3.4 3.1-.8 6.1-1.6 9-2.5zm30.4-25.2c1.6-.4 3.4 0 4.1 1.6.8 2.1 1.5 4.3 2.3 6.4.4 1.7-.8 3.1-2.3 3.7-2.7 1-5.4 1.9-8.1 2.8-1.6.4-3.5.1-4.3-1.5-.7-2.2-1.5-4.4-2.3-6.6-.4-1.8.9-3.2 2.5-3.8l8.1-2.6zm-17.1 5.4c1.7-.4 3.7-.1 4.5 1.6.8 2.2 1.6 4.4 2.3 6.7.4 1.8-1.1 3.2-2.6 3.8-3 .9-5.9 1.9-8.9 2.7-1.7.4-3.7.2-4.6-1.6l-2.4-6.7c-.4-1.9 1.1-3.2 2.7-3.8l9-2.7zm-18.5 5.5c1.8-.4 3.8-.1 4.7 1.7l2.4 6.7c.4 1.8-1.1 3.1-2.7 3.7l-9 2.5c-1.7.4-3.7.1-4.6-1.6l-2.5-6.6c-.5-1.8 1-3.2 2.6-3.7l9.1-2.7zm44.9-29c1.5-.4 3.3 0 4 1.5.8 2 1.6 4.1 2.4 6.1.2.8 0 1.6-.5 2.3-.3.5-.8.9-1.4 1.1l-6.9 2.2c-1.6.4-3.2-.2-4-1.6-.9-2.1-1.8-4.2-2.8-6.2-.5-1.5.3-2.7 1.7-3.2l3.1-.8 4.4-1.4zm-15.2 4.3c1.6-.3 3.4.1 4.3 1.6 1 2.1 1.9 4.2 2.8 6.3.5 1.6-.6 3-2.1 3.6l-8.2 2.5c-1.7.4-3.6 0-4.5-1.6l-2.7-6.6c-.5-1.7.7-3 2.3-3.6l8.1-2.2zm-16.9 4.7c1.7-.4 3.7 0 4.6 1.6l2.7 6.6c.5 1.8-.9 3.2-2.5 3.8l-9 2.7c-1.8.4-3.8.1-4.7-1.7l-2.6-6.8c-.5-1.8 1-3.2 2.6-3.8l8.9-2.4zm-18.3 5.3c1.7-.4 3.8-.1 4.7 1.6l2.6 6.8c.5 1.9-1.1 3.3-2.7 3.8l-9.1 2.6c-1.7.4-3.8 0-4.7-1.7l-2.5-6.8c-.4-1.8 1.1-3.2 2.6-3.8l9.1-2.5zm-18.2 5.4c1.7-.4 3.7 0 4.5 1.6l2.5 6.7c.4 1.8-1 3.2-2.6 3.7l-8.6 2.4c-1.7.3-3.6-.1-4.4-1.7l-2.4-6.6c-.4-1.7.9-3.1 2.4-3.7l8.6-2.4zm77.4-36.8c1.6-.4 3.3-.1 4 1.4l.5 1.3 2.1 4.3c.6 1.4-.3 2.7-1.6 3.2l-7 2.2c-1.5.4-3.2 0-4-1.5-.9-2-1.8-3.9-2.7-5.9-.6-1.5.4-2.7 1.8-3.1l6.9-1.9zm-14.5 4.1c1.5-.3 3.2 0 4.1 1.5.9 2 1.8 3.9 2.7 5.9.5 1.6-.6 2.8-2 3.4l-6 1.9-1.6.4c-1.6.3-3.2-.2-4.2-1.6l-1.4-2.6-1.4-3.3c-.5-1.6.7-2.8 2.1-3.4l7.7-2.2zm-15.9 4.7c1.6-.4 3.4-.1 4.3 1.5l.6 1.6 2.3 4.2c.6 1.5-.5 2.7-1.9 3.2l-8 2.2c-1.7.3-3.6 0-4.5-1.6l-2.8-6c-.5-1.6.8-2.7 2.1-3.1l6.1-1.4 1.8-.6zm-16.4 4.1c1.6-.3 3.5 0 4.5 1.5 1 2 1.9 4 2.8 6 .5 1.7-.9 3-2.4 3.5l-8.8 2.5c-1.7.4-3.7.1-4.7-1.6l-2.5-6.2c-.4-1.7 1.1-2.9 2.5-3.4l8.6-2.3zm-17.6 4.7c1.6-.4 3.6-.2 4.5 1.4l2.5 6.3c.5 1.8-1.1 3.1-2.6 3.7l-9 2.7c-1.7.4-3.7.1-4.5-1.6l-2.2-6.4c-.4-1.8 1.2-3 2.7-3.5l8.6-2.6zm-17.6 5.3c1.6-.4 3.5-.2 4.3 1.4l2.1 6.4c.4 1.8-1.1 3.1-2.6 3.7l-8.5 2.6c-1.6.4-3.4 0-4.2-1.6-.7-2.1-1.3-4.2-1.9-6.3-.3-1.7 1.1-3 2.5-3.6l8.3-2.6zm61.5-30.7c1.5-.3 3.2 0 4.1 1.4 1 1.8 1.9 3.6 2.8 5.4.6 1.5-.5 2.7-1.9 3.1l-7.6 2.2c-1.5.4-3.4 0-4.2-1.4l-2.6-5.6c-.6-1.5.7-2.6 2-3l7.4-2.1zm-15.4 4.1c1.5-.3 3.3-.1 4.2 1.4l2.6 5.7c.5 1.6-.8 2.8-2.2 3.3l-4.9 1.4-3.1.7c-1.6.3-3.4 0-4.4-1.4l-.7-1.2-1.8-4.5c-.4-1.6.9-2.7 2.3-3.2l8-2.2zm-16.4 4.7c1.5-.3 3.4-.2 4.2 1.4l1.4 3.5 1.1 2c.6 1.6-.9 2.6-2.2 3l-8.5 2.2c-1.6.3-3.5.2-4.4-1.3l-2.2-5.3c-.2-.7.1-1.4.6-1.9s1.2-.9 1.8-1.2l8.2-2.4zm27-21.2c1.5-.4 3.2-.1 4 1.3l2.1 5.9c.3 1.6-.9 2.8-2.2 3.4l-7.5 1.9c-1.5.3-3.2 0-4.1-1.3l-2.2-4.2-.5-1.1c-.8-1.7-.2-3.4 1.7-3.9l3-.4 4.1-1.1 1.6-.5zm-48.5 11.5c.8-.3 1.7-.1 2.5.4.7.4 1.2 1 1.5 1.7l.8 2.3 1.8 4.9c0 2-1.2 2.9-2.4 3.4l-3.5 1.1-4.6 1.3c-1 .2-2.1.2-3.1-.2-.4-.2-.6-.5-.8-.9l-.6-2-1.1-4.5v-1c.3-1.4 1.1-2.6 2.3-3.4 1.9-.8 3.8-1.6 5.7-2.3.4-.3.9-.6 1.5-.8zm7.8-20.6c1.4-.2 2.8.4 3.5 1.7 1 2.3 2.1 4.6 3.1 6.9.5 1.6.2 3.3-1.4 4.1l-2.1.7c-1.6.4-3.2.9-4.7 1.4-1.3.2-2.5-.2-3.3-1.2-.2-.2-.3-.5-.4-.8-.8-2.4-1.6-4.8-2.3-7.3-.3-1.4.3-2.8 1.6-3.5 2-.6 4-1.3 6-2zm-12.1 4.6c1.3-.4 2.6.3 3.1 1.6.7 2.5 1.5 4.9 2.2 7.4.3 1.8-.5 3.2-1.8 4-2.4 1-4.7 2.2-7 3.4-1.5.5-3-.3-3.3-1.9-.2-1.3-.3-2.5-.5-3.8-.2-1.2-.4-2.5-.5-3.7-.2-1.6.6-3.2 1.9-4.1 2-1.1 3.9-2 5.9-2.9zm17.2-21.6c1.7 0 3.2.8 4.2 2.1 1.1 1.6 2.3 3.3 3.5 4.9l.9 1.7c.4 1.3-.4 2.4-1.6 2.8-2.2.5-4.4 1.1-6.6 1.6-1.1.2-2.2-.1-3-.8-.3-.4-.5-.8-.8-1.2-1.1-2.4-2.3-4.8-3.4-7.3-.4-1.1-.1-2.3 1-2.8 2-.4 3.9-.8 5.8-1zm-14-6.4c.9-.2 1.7 0 2.2.8.5 1.3 1.1 2.6 1.5 3.9.3 1-.2 2-1.1 2.5-1.5.5-3 1.2-4.5 1.8-1 .3-1.9-.2-2.3-1.1-.4-1.4-.8-2.8-1.1-4.2-.1-.9.4-1.7 1.2-2.2 1.4-.5 2.7-1 4.1-1.5zm71.6 83c1.4-.4 2.9.2 3.6 1.6.8 2 1.5 4 2.2 6.1.4 1.5-.4 2.8-1.8 3.5l-6.9 2.7c-1.5.4-3.1 0-3.8-1.5-.7-2.1-1.5-4.3-2.3-6.4-.4-1.6.5-3 2-3.6l7-2.4zm9.2-18c1.4-.4 3 .1 3.7 1.5.8 2 1.7 3.9 2.4 5.9.5 1.5-.4 2.8-1.8 3.4l-7 2.5c-1.5.4-3.2 0-3.9-1.5-.8-2-1.6-4.1-2.4-6.1-.5-1.5.5-2.9 1.9-3.4l7.1-2.3zm-74.9-6.5c1.4-.3 3.3-.3 4.2 1.1l2.2 5.3c.4 1.7-1.2 2.8-2.6 3.3l-8.6 2.5c-1.5.4-3.5.3-4.2-1.3l-1.8-5.5c-.3-1.6 1.3-2.6 2.6-3.1l8.2-2.3zm25.5-22.7c1-.1 1.9.2 2.8.6 1.2.5 2.2 1.3 2.9 2.3l1.1 1.7 1.9 3.7c.4 1.5-.8 2.5-2.1 3l-7.9 2.2c-1.5.3-3.3 0-4.2-1.3l-2-3.9-1.7-2.9c-.7-1.5-.8-3.3 1-3.9 2.7-.7 5.4-1.2 8.2-1.5zm-15.9 3c2.1-.2 3.7 1.1 4.9 2.6l1.8 3.1 2 3.9c.3 1.7-1 2.7-2.3 3.2l-8.1 2.4c-1.3.3-2.7.2-3.7-.7-.2-.2-.3-.5-.5-.8l-1.7-4.6-1-2.6c-.1-.4-.2-.9-.1-1.4.1-1.3.6-2.4 1.8-3.1 2.1-.6 4.5-1.3 6.9-2zm23.2-21.7c2.3-.2 4.7.7 6.2 2.3l4.1 4.8 1.4 2.4c.6 1.6-.3 3-2 3.5l-2.4.6c-1.3.2-2.7.4-4 .6-1 .1-2.1.1-3.1.2-2.4.1-4.7-1.3-6.1-3-1.5-2.3-3-4.7-4.5-7.1-.6-1.4.1-2.6 1.7-3 2.8-.5 5.7-1 8.7-1.3zm-16.6 2.7c1.7-.3 3.4.6 4.4 1.9 1.4 2.4 2.9 4.7 4.3 7 .7 1.5.6 3.3-1.3 3.8-2.7.4-5.3 1.1-7.9 1.5-1.9.3-3.7-1.1-4.5-2.5-1.1-2.3-2.2-4.6-3.2-6.9-.5-1.3.1-2.6 1.5-3.2 2.2-.5 4.4-1.2 6.7-1.6zm-18.9-10.9c1.2-.2 2.3.6 2.9 1.6 1 2.4 2.1 4.8 3.2 7.3.2.5.3 1 .4 1.4-.1 1-.8 1.7-1.6 2.1-2 .6-3.9 1.3-5.8 2-1.2.3-2.5-.2-3-1.3-.8-3-1.4-5.4-1.8-7.7-.2-1.3.1-2.7 1.3-3.5 1.3-.7 2.9-1.3 4.4-1.9zm5.7-11.6c1.1-.2 2.2.1 2.9 1 .8 1.3 1.6 2.7 2.4 4 .5 1.1-.2 1.9-1.3 2.2-1.8.3-3.6.7-5.4 1.1-1.1.1-2.2-.3-2.8-1.3-.6-1.3-1.2-2.5-1.6-3.9-.3-.9.4-1.6 1.2-1.9 1.5-.4 3.1-.8 4.6-1.2zm-23.9 53.1c1.4-.3 3.2-.3 3.9 1.1l1.8 5.6c.3 1.7-1.2 2.9-2.6 3.4l-8.3 2.5c-1.4.4-3.3.2-3.9-1.3-.5-1.9-1-3.7-1.4-5.6-.2-1.6 1.3-2.7 2.6-3.2 2.7-.9 5.3-1.7 7.9-2.5z" clip-rule="evenodd"/><path fill="#82BC00" fill-rule="evenodd" d="M241.7 78.4c1.4-.1 2.9.4 3.6 1.8.6 1.8 1.3 3.6 1.9 5.4.3 1.4-.8 2.4-2 2.7l-7.2 1.2c-1.5.2-3.1-.3-3.7-1.8l-1.9-5.6c-.4-1.5.9-2.4 2.2-2.7l7.1-1zm-14.9 2.1c1.5-.2 3.2.3 3.8 1.8l1.8 5.6c.4 1.5-1 2.5-2.3 2.8l-7.6 1.2c-1.5.2-3.1-.3-3.7-1.8l-1.7-5.6c-.3-1.5 1-2.5 2.3-2.7l7.4-1.3zm-21.4-54.6c1.1-.1 2.6.2 3.1 1.2l1.7 3.4c.4 1.1-1 1.5-1.9 1.6l-6.4.6c-1.1.1-2.7-.1-3.2-1.2l-1.5-3.5c-.4-1.1 1.1-1.5 2-1.6l6.2-.5zm56.3 40c1.2 0 2.4.5 3 1.6l1.9 4.5c.4 1.1-.4 1.9-1.5 2.1l-5.7.6c-.4 0-.8 0-1.2-.1-.8-.3-1.5-.9-1.8-1.6l-1-2.3-1-2.3c-.4-1.1.5-1.9 1.6-2.1l5.7-.4zm-11.7.9c.4 0 .7.1 1.1.2.9.2 1.6.7 2 1.5.7 1.5 1.5 3 2.1 4.5.4 1.1-.3 1.9-1.4 2.1l-6 .5c-1.4.1-2.8-.5-3.4-1.8l-2.1-4.8c-.4-1.2.7-1.9 1.7-2 2 0 4-.1 6-.2zm-12.7.8c1.3-.1 2.8.4 3.5 1.6.7 1.6 1.4 3.2 2.1 4.9.4 1.3-.8 2.2-1.9 2.4l-7.1.9c-1.4.1-3.1-.3-3.7-1.7l-1.8-5c-.4-1.3 1-2.1 2.1-2.3 2.3-.3 4.6-.6 6.8-.8zm-14.1 1.8c1.3-.2 2.9.1 3.5 1.5l1.7 5c.4 1.5-1 2.4-2.3 2.6-2.5.4-4.9.8-7.4 1.2-1.4.2-3-.2-3.5-1.6l-1.3-5c-.2-1.4 1.1-2.2 2.3-2.5 2.4-.4 4.7-.8 7-1.2zm-13.9 2.7h.9c1 0 1.9.4 2.2 1.4.4 1.7.8 3.3 1.3 5 .2 1.4-1 2.3-2.2 2.7l-3 .6-2.5.4-2.2.3c-1.6.1-3.6 0-4.5-1.6-.6-1.6-1.2-3.3-1.8-5-.3-1.6 1.7-2.3 2.9-2.5l8-1.2.9-.1zM268.2 56c1.2 0 2.3.6 2.8 1.6l2 4.2c.4.9-.1 1.7-1.2 1.8l-5.2.3c-1.2 0-2.4-.6-3-1.6l-2-4.3c-.4-1 .3-1.7 1.3-1.8l5.3-.2zm-10.7.5c1.2 0 2.5.6 3 1.6l2 4.3c.4 1-.3 1.8-1.4 1.9l-5.7.4c-1.3.1-2.6-.5-3.1-1.6l-1.9-4.4c-.4-1 .4-1.8 1.5-1.9l5.6-.3zm-11.7.7c1.2 0 2.6.4 3.2 1.6l1.9 4.4c.4 1.1-.6 1.9-1.6 2l-.9.1-5.1.2c-1.3 0-2.7-.4-3.4-1.5l-.9-1.8-1-2.4c-.4-1.2.7-1.9 1.8-2l6-.6zm-12.6 1.2c1.3-.1 2.7.3 3.3 1.5l.8 2 1.1 2.2c.5 1.2-.9 1.8-1.8 1.9-2.3.2-4.5.5-6.8.7-1.2.1-2.8-.1-3.4-1.4l-1-2.7-.6-1.5c-.4-1.3.9-2 2-2.1l6.4-.6zm-63.8 10.4c.6-.1 1.1-.3 1.7-.3.9 0 2 .2 2.5 1.2.3 1.5.6 3 1 4.5-1 1.9-2.5 2.4-4 2.7l-8.5 1.8-1.6.2c-1.7.1-4.6.6-5.8-.9-.4-1.2-.9-2.4-.7-3.7.2-1.8 3.8-2.3 5.2-2.7l2.2-.5 8-2.3zm94.4-21.3c1.1 0 2.3.6 2.8 1.5l2 3.9c.4.9-.2 1.6-1.2 1.7l-5.1.1c-1.2 0-2.4-.6-2.9-1.6l-2-4c-.4-.9.3-1.6 1.3-1.6h5.1zm-10.6.2c1.2 0 2.4.5 3 1.5l2 4c.4 1-.3 1.7-1.4 1.8l-5.6.3c-1.2.1-2.6-.5-3.1-1.5l-1.9-4.1c-.4-1 .5-1.7 1.5-1.7l5.5-.3zm-50.8 4.4c1.3-.1 2.9.2 3.4 1.4l1.6 4.4c.3 1.3-1 2-2.2 2.2l-8.7 1.4c-1.3.2-3.4.2-4-1.2l-1.2-4.5c-.2-1.4 1.7-2.1 3-2.4l5.9-1.1 2.2-.2zM185.6 55c1.3-.2 3.2-.2 3.8 1.2l1.2 4.5c.1 1.5-1.6 2.1-2.9 2.4l-4.3.8-4.6 1.1c-1.3.2-3.5.5-4-1l-.5-4.6c.1-1.3 1.5-2.1 2.7-2.6l.7-.2 7.9-1.6zm-17.2 4c1.2-.3 3.1-.5 3.7.9.2 1.5.5 3 .5 4.5 0 1.4-1.6 2-2.6 2.4l-.7.2-8.5 2.4-1.8.4c-1.3.3-4.6 1.3-5.3-.3.1-1.4.2-2.9.7-4.3.5-1.4 2.2-2.1 3.4-2.8.6-.3 1.2-.6 1.8-.8l5.1-1.7c1.2-.2 2.5-.6 3.7-.9zm90.9-19.5c1.1.1 2.3.6 2.8 1.5l2.1 3.6c.4.9-.2 1.5-1.2 1.5h-5.1c-1.1 0-2.4-.6-2.9-1.5l-2-3.7c-.5-.9.4-1.5 1.3-1.5l5 .1zm-10.4-.1c1.1 0 2.4.5 3 1.5l2 3.7c.5 1-.4 1.6-1.4 1.6l-5.5.2c-1.2 0-2.5-.5-3.1-1.5l-1.9-3.8c-.5-1 .5-1.5 1.5-1.6l5.4-.1zm-36.4 2.1c1.2-.1 2.8.2 3.3 1.3l1.7 4c.4 1.2-.9 1.8-2 2l-6.7.8c-1.2.1-2.9-.2-3.4-1.4l-1.6-4.1c-.4-1.2 1-1.8 2-1.9l6.7-.7zM199 43c1.2-.1 2.8.1 3.4 1.3l1.6 4.1c.3 1.2-1 1.9-2.1 2.1l-2.7.4-5.2 1c-1.3.2-3.3.3-3.8-1.1l-1-4.3c-.1-1.4 1.8-2.1 3-2.4l.9-.2 5.9-.9zm-15.5 2.7c1.3-.2 3.1-.3 3.6 1.1l1 4.3c.1 1.4-1.6 2.1-2.9 2.4l-8 1.6c-.8.1-1.7.2-2.5-.1-.4-.1-.7-.4-.9-.7l-1-4.5c0-1.4 1.5-2 2.8-2.3l7.9-1.8zm38-13.2c1.1 0 2.6.3 3.1 1.3l1.8 3.6c.5 1.1-.8 1.6-1.7 1.7l-6.2.5c-1.2.1-2.7-.2-3.3-1.3l-1.7-3.7c-.4-1.1.9-1.6 1.8-1.7l6.2-.4zm-12.6.9c1.1-.1 2.7.2 3.2 1.3l1.7 3.7c.4 1.1-.9 1.7-1.9 1.8l-6.5.7c-1.2.1-2.8-.2-3.3-1.3l-1.6-3.8c-.4-1.1 1.1-1.7 2-1.8l6.4-.6zm-13.2 1.3c1.2-.1 2.7.1 3.3 1.2l1.5 3.8c.3 1.2-1.1 1.7-2.1 1.9l-6.8.9c-1.3.2-3.2.3-3.7-1l-.5-2.5-.6-1.5c-.3-1.2 1.1-1.7 2.2-1.9l6.7-.9zm22-9.6c1.1 0 2.5.3 3.1 1.2l1.8 3.3c.5 1-.8 1.5-1.7 1.5l-6.1.4c-1.1.1-2.6-.2-3.2-1.2l-1.7-3.4c-.4-1 1-1.4 1.8-1.5l6-.3zm-26.5 49.6c1.5-.2 3.4 0 4.2 1.4l1.8 5c.3 1.5-1.4 2.3-2.8 2.5l-2.6.4-7.5 1c-1.6.1-3.9.1-4.7-1.4-.5-1.5-1.1-3.1-1.5-4.7-.2-1.6 1.9-2.2 3.3-2.5l8.2-1.4 1.6-.3zm28.7-14.9c1.3-.1 2.8.3 3.4 1.5l.7 1.7.9 2.5c.3 1.3-1.2 2-2.2 2.2-2.3.4-4.6.8-6.8 1.2-.8.1-1.7.1-2.4-.3-.4-.3-.7-.6-.9-1l-1.6-4.7c-.3-1.3 1-2.1 2.1-2.3l6.8-.8zm-14.1 1.9c1.4-.1 2.9.2 3.5 1.5l1.6 4.7c.3 1.3-1 2.1-2.2 2.4l-8.9 1.3c-1.4.2-3.6.1-4.2-1.4-.5-1.5-1-3.1-1.5-4.7-.3-1.5 1.7-2.2 2.9-2.4l8.4-1.4h.4zm-17.6 2.9c1.4-.2 3.3-.1 3.9 1.3l1.4 4.7c.2 1.5-1.5 2.2-2.8 2.5l-1.8.3-8 1.5c-1.4.2-3.6.3-4.3-1.1-.3-1.5-.7-3-1-4.5 0-1.6 2-2.3 3.4-2.7l5.4-1.2 3.8-.8zM147.4 74c1.2-.2 3.2-.6 3.9.6.2 1.2.6 2.4.7 3.6.1 1.4-2.4 1.8-3.4 1.9-2.5.3-4.9.7-7.4 1-.9.1-2.2.1-2.7-.8-.2-1-.6-1.9-.6-2.9 0-1.1 1.4-1.5 2.2-1.7l7.3-1.7zm94.2-25.8c1.2 0 2.6.4 3.1 1.5l1.9 4.1c.4 1.1-.5 1.8-1.6 1.9l-6 .5c-1.2.1-2.7-.4-3.2-1.5l-1.9-4.2c-.4-1.1.7-1.8 1.7-1.9l6-.4zm-12.3.9c1.2-.1 2.7.4 3.3 1.5l1.8 4.2c.4 1.1-.7 1.9-1.8 2l-6.4.7c-1.3.1-2.8-.3-3.4-1.5l-1.8-4.3c-.4-1.2.8-1.8 1.9-2l6.4-.6zm-13.2 1.3c1.3-.1 2.8.3 3.4 1.4l1.7 4.3c.4 1.2-.9 2-2 2.1l-6.8.9c-1.3.1-2.9-.2-3.5-1.5l-1.6-4.4c-.4-1.2 1-1.9 2.1-2.1l6.7-.7zM147.7 66c.8-.3 3.8-1.3 3.9.3-.1 1.4-.2 2.7-.5 4.1-.3 1.5-2.6 2.1-3.9 2.5l-7.3 1.8c-.8.2-2.1.3-2.5-.6-.1-1-.3-2.1-.2-3.1.1-1.2 1.6-1.8 2.5-2.2 2.8-1 5.4-1.9 8-2.8zm89.8-26.3c1.2 0 2.5.4 3.1 1.4l1.9 3.9c.5 1-.6 1.6-1.6 1.7l-5.9.4c-1.2.1-2.7-.4-3.2-1.5l-1.8-3.9c-.4-1 .7-1.6 1.7-1.7l5.8-.3zm-12.1.7c1.2-.1 2.6.3 3.2 1.4l1.8 3.9c.4 1.1-.7 1.7-1.8 1.8l-6.3.6c-1.2.1-2.8-.3-3.3-1.4l-1.7-4c-.4-1.1.9-1.7 1.9-1.8l6.2-.5zm19.1-8.6c1.1 0 2.3.5 2.9 1.4l2 3.5c.5.9-.4 1.4-1.3 1.5l-5.4.1c-1.1 0-2.5-.4-3-1.4l-1.9-3.5c-.5-.9.6-1.4 1.4-1.4l5.3-.2zm-11.1.1c1.1 0 2.5.4 3 1.3l1.9 3.6c.5 1-.6 1.5-1.5 1.6l-5.8.3c-1.2 0-2.6-.3-3.2-1.4l-1.8-3.6c-.5-1 .8-1.5 1.6-1.5l5.8-.3zm-4.1-7.1c1.1 0 2.4.4 3 1.3l1.9 3.3c.5.9-.7 1.4-1.5 1.4l-5.7.2c-1.1 0-2.5-.3-3.1-1.3l-1.8-3.3c-.5-1 .8-1.3 1.6-1.4l5.6-.2zm25.3 52.1c1.3-.1 2.5.7 3 1.8.6 1.7 1.2 3.3 1.7 5 .3 1.1-.4 2.1-1.5 2.4l-5.8 1c-1.4.1-2.7-.5-3.3-1.8-.6-1.8-1.2-3.6-1.9-5.4-.4-1.3.6-2.2 1.8-2.4l6-.6zM132.3 46.8c1.2-.8 2.9-1 2.6.9-.3 2.3-.7 4.5-1.2 6.8-.3 1.5-1.5 2.7-2.8 3.5-1.7.9-3.5 1.7-5.3 2.5-.8.3-1.8.2-2-.8-.2-1.6-.2-3.1-.1-4.7.1-1.5 1-2.7 2.2-3.6 2.3-1.4 4.5-2.9 6.6-4.6zm28.3-19.4c1.1-.2 2.9-.4 3.2.9l.7 4c.1 1.3-1.5 2-2.7 2.3l-7.2 1.7c-1.1.2-2.8.3-3.1-.9l-.6-4c0-1.3 1.5-2 2.6-2.3l7.1-1.7zM146.1 31c1.1-.2 2.6-.3 3 .9.2 1.3.5 2.6.6 4 .1 1.3-1.4 2-2.6 2.3l-.7.2-6.4 2.3c-1.5.4-2.8.3-2.9-1-.1-1.2-.2-2.3-.2-3.5 0-.4-.1-.7-.1-1.1 0-1.3 1.3-1.9 2.5-2.3l6.8-1.8zm-13.7 3.5c1-.2 2.4-.3 2.9.9l.2 3.5v1.5c-.2 1.6-1.4 2.8-2.8 3.6-2.7 1.9-4.7 3.5-6.8 5-1.3.7-2.2 0-2.3-1.4-.1-1.6 0-3.1 0-4.7 0-.9-.1-1.7-.1-2.5 0-1.6 1.2-2.8 2.5-3.6l1.2-.6 2.9-1 2.3-.7zM159 19.3c1-.1 2.6-.2 3.1.9l.8 2.5.1 1c0 1.3-1.6 2-2.7 2.3l-7.2 1.8c-1 .2-2.7.4-3.1-.9l-.5-3.9c0-1.3 1.5-2 2.6-2.3 1.1-.3 2.3-.7 3.5-.9 1.2-.2 2.3-.4 3.4-.5zm-14 3.3c1-.2 2.7-.4 3 .8l.5 3.9c0 1.3-1.4 2-2.6 2.3l-6.8 1.7c-1 .2-2.6.4-2.9-.9-.2-1.3-.4-2.5-.5-3.8-.1-1.2 1.4-1.9 2.5-2.3l6.8-1.7zm-13.6 3.7c.9-.2 2.6-.4 2.8.8.3 1.2.4 2.6.5 3.8.1 1.3-1.4 1.9-2.4 2.2l-6.4 1.7c-.8.2-1.4.2-2 0-.4-.1-.7-.4-.8-.9-.2-1.2-.4-2.5-.5-3.8-.1-1.2 1.3-1.9 2.4-2.2l6.4-1.6zm12.4-11.5c.9-.2 2.5-.3 2.9.8l.5 1.6c.1.6.1 1.2.2 1.8 0 1.3-1.4 2-2.6 2.3l-6.8 1.8c-1 .2-2.6.4-2.9-.8l-.4-3.8c0-1.2 1.4-1.9 2.5-2.3.9-.3 1.8-.6 2.8-.8l3.8-.6zm-13.4 3.4c.9-.2 2.5-.4 2.8.8.1 1.2.4 2.5.4 3.8.1 1.2-1.4 1.9-2.5 2.2l-6.4 1.8c-.9.2-2.5.4-2.7-.8-.2-1.2-.3-2.5-.4-3.7-.1-1.2 1.3-1.9 2.4-2.2l6.4-1.9zm11.7-9.5c.9-.1 2.4-.3 2.8.7l.8 2.8c.2 1.1-1.4 1.4-2.2 1.6l-6.4 1.2c-.9.1-2.2.5-2.7-.5l-.8-3.1c-.1-1 1.4-1.4 2.3-1.6l6.2-1.1zm-12.7 2.4c.8-.2 2.4-.4 2.8.6l.6 2.5c0 1.6-1.3 2.3-2.4 2.6l-6.4 1.9c-.9.2-2.4.4-2.7-.7l-.4-3.6c0-.5.2-.9.6-1.3.5-.4 1.2-.6 1.8-.7l6.1-1.3zm1.4 48.5c.8-.3 2.2-.6 2.2.6 0 1.3-.1 2.7-.3 4-.2 1.1-1.2 1.8-2.2 2.2-1.5.6-3.1 1.1-4.7 1.6-.7.2-1.6.2-1.8-.7-.2-1.1-.3-2.2-.2-3.3 0-1.1.9-1.8 1.8-2.2 1.8-.6 3.5-1.4 5.2-2.2zm-9.8 4.1c.7-.2 1.7-.1 1.8.8.2 1.1.3 2.1.3 3.2 0 .9-.8 1.4-1.5 1.7l-3.9 1.1c-.7.1-1.5 0-1.7-.7-.2-1-.4-2-.5-2.9-.1-.9.7-1.5 1.4-1.8 1.4-.4 2.8-.9 4.1-1.4zm-.7-9.2c1-.4 1.9 0 2.1 1.1.1 1.5.2 3 .2 4.6 0 1.1-.8 1.9-1.7 2.3-1.4.5-2.8 1-4.2 1.4-.8.2-1.6-.1-1.9-.9-.3-1.3-.5-2.6-.7-3.9-.1-1.1.5-2 1.5-2.5 1.6-.7 3.2-1.4 4.7-2.1zm-9.2 3.7c.9-.2 1.9.3 2.1 1.2.3 1.3.6 2.6.7 3.9.1.9-.6 1.6-1.4 1.8-1.4.4-2.7.7-4.1 1-.8.1-1.8-.2-2.1-1-.4-1.2-.8-2.5-1.1-3.7-.2-1 .4-1.8 1.3-2.1 1.6-.3 3.1-.7 4.6-1.1zM175 24.6c1.1-.1 2.7 0 3.2 1.1l1.3 3.6c.3 1-.8 1.5-1.6 1.7l-.7.2-7.8 1.8c-1.1.2-3 .4-3.3-.9l-.7-4c-.1-1.3 1.6-2 2.8-2.4 2.6-.6 4.7-.9 6.8-1.1zm-55.6 15.2c1.1-.3 2.4-.1 2.6 1.2.1.6.2 1.3.2 1.9.1 1.9.1 3.7 0 5.6-.1 1.6-.7 3.1-2 4-1.6.8-3.2 1.6-4.8 2.3-1.1.3-2-.4-2.3-1.5-.5-2.3-.9-4.5-1.3-6.8-.2-1-.1-2.1.2-3.1.4-.5.9-.9 1.4-1.1 2.1-.8 4.1-1.6 6-2.5zm-11.7 4.7c1.6-.3 2.6 1.2 2.9 2.5.6 2.2 1.1 4.4 1.4 6.7.2 1.2-.3 2.3-1.4 2.8-1.5.5-3 .9-4.6 1.2-1.2.1-2.2-.6-2.6-1.6-.8-2-1.6-4-2.3-6.1-.4-1.3-.4-3 1.1-3.6 1.9-.5 3.8-1.1 5.5-1.9zm64.6-27.1c1.1-.1 2.6-.1 3.1 1l1.3 3.3c.3 1.1-1.2 1.6-2.1 1.7l-6.6.9c-.5.1-1.1.1-1.6 0s-1-.2-1.3-.6l-1.4-3.7c-.2-1.1 1.3-1.5 2.2-1.7 2.1-.4 4.2-.6 6.4-.9zm-53.9 12.5c.9-.2 2.4-.4 2.7.8.3 1.2.3 2.5.5 3.7-.4 1.8-1.2 2.7-2.3 3.3-1.9.9-3.9 1.8-5.9 2.6-1.2.4-2.4-.1-2.6-1.3-.2-1-.4-2.1-.5-3.2l-.1-1.3-.1-.7c.1-1.2 1.2-1.8 2.3-2.2l6-1.7zm51.3-19c.9-.1 2.5-.1 3 .9l1.2 3c.3 1-1.3 1.4-2.1 1.5l-6.4.8c-.9.1-2.6.1-3.1-.9l-1.1-3c-.3-1 1.4-1.4 2.1-1.5l6.4-.8zm-12.9 1.7c1-.1 2.5-.2 3 .8l1.1 3c.2 1.1-1.3 1.5-2.2 1.7-1.8.3-3.6.5-5.4.9l-1.2.3c-1 .2-2.7.4-3-.8 0-.3-.1-.6-.1-.8l-.7-2.4c-.2-1.1 1.4-1.5 2.2-1.6 2-.4 4.2-.8 6.3-1.1zm-39.3 9.3c.9-.2 2.5-.4 2.7.7.2 1.2.3 2.5.4 3.7.1 1.2-1.3 1.9-2.3 2.2l-6.1 1.8c-.8.2-2.4.4-2.6-.8-.2-1.2-.3-2.4-.4-3.6-.1-1.2 1.3-1.9 2.3-2.2l6-1.8zM167.2 5c.9-.1 2.4-.1 2.9.8l1.2 2.7c.3 1-1.3 1.3-2 1.4l-6.3.8c-.9.1-2.5.2-3-.8l-1-2.7c-.3-.9 1.4-1.3 2.1-1.4l6.1-.8zm-12.5 1.6c.8-.1 2.5-.2 2.9.7l1 2.7c.3 1-1.4 1.4-2.1 1.5l-6.4 1c-.8.1-2.6.2-2.9-.7l-.8-2.8c-.2-1 1.5-1.4 2.2-1.5l6.1-.9zM106 33.5c.9-.2 2.2-.3 2.6.8l.2 1.8c.2 1.2.4 2.3.5 3.5.1 1.3-.7 2.5-1.9 3.1-1.8.7-3.7 1.3-5.6 1.9-1.2.2-2.4-.3-2.7-1.4-.4-1.5-.8-3-1.1-4.5v-.9c-.1-.7.3-1.4.8-1.9.4-.3.8-.5 1.3-.6l5.9-1.8zm41.3 6.3c1.1-.3 2.7-.5 3.1.9l.2 4.8c0 .5-.2.9-.5 1.2-.8.9-1.8 1.6-2.8 2.1l-2.2.9c-2.3 1.5-4.6 3-7 4.3-.9.5-2.8 1.1-2.7-.6.2-2.5.9-4.9 1.5-7.3.5-2 1.8-3 3.1-3.7l1.8-.8 5.5-1.8zM63.9 93c.9-.2 3.3-.6 3.4.8.1 1.5-.1 3-.3 4.4-.5 1.6-2.4 2.5-4 3.1l-.8.3-7.2 2.5c-1.6.3-2.6 0-2.7-1v-4.8c0-.4.2-.7.3-1.1.7-.8 1.7-1.4 2.8-1.8l4.1-1.3 4.4-1.1zm-15.3 4.9c.9-.3 2.4-.3 2.5.9 0 1.6 0 3.2-.1 4.8-.1 1.4-1.3 2.4-2.6 3l-6.4 2.5c-1 .3-2.5.2-2.5-1 .1-1.6.2-3.3.3-4.9.2-1.3 1.3-2.4 2.6-2.9l6.2-2.4zM36 102.8c1-.3 2.4-.3 2.4.9-.1 1.7-.2 3.3-.3 5-.2 1.1-1 2-1.9 2.7l-5.5 2.4c-1 .3-1.9-.1-2.1-1.1l-.3-4.7c0-1.1.7-2.2 1.8-2.7l.9-.4 5-2.1zm69.5-27.4c.7-.1 1.6-.1 1.9.7.3.8.5 1.7.6 2.6.1.8-.8 1.3-1.5 1.5l-4.5 1.2c-.7.1-1.9.2-2.2-.6-.3-.9-.5-1.9-.6-2.8-.1-.9 1-1.4 1.7-1.6l4.6-1zm-10.1 2.2c.8-.1 2.2-.2 2.6.7.3.9.5 1.9.6 2.8 0 1-1.3 1.5-2.1 1.8l-6.8 1.8c-.9.2-3.1.7-3.5-.5-.2-1.1-.4-2.2-.4-3.4 0-1.3 2.1-1.7 3-1.9l6.6-1.3zM63.5 84c1-.2 3.2-.4 3.5.9.3 1.3.3 2.7.3 4-.2 1.5-2 2.1-3.4 2.6l-4.6 1.2-3.8 1.2c-.9.2-3 .5-3.1-.8-.1-1.5 0-2.9 0-4.4.2-1.4 1.6-2.1 3-2.6l3.1-.9 5-1.2zm-14.9 4.3c.9-.3 2.3-.3 2.4.8.1 1.5 0 2.9 0 4.4-.1 1.3-1.2 2.2-2.5 2.8l-6.1 2.3c-.9.3-2.4.3-2.4-.9 0-1.5.1-3 .2-4.5.1-1.3 1.3-2.2 2.4-2.7l6-2.2zm-12.1 4.6c.9-.3 2.3-.3 2.3.8l-.2 4.5c-.2 1.3-1.3 2.3-2.6 2.9l-6.1 2.4c-1 .4-2 0-2.1-1l-.1-2.7c0-.6.1-1.2.2-1.8.2-1.3 1.3-2.3 2.6-2.8l6-2.3zm-11.6 4.8c.9-.4 1.8 0 1.9.9l.2 4.5c0 1.1-.7 2.2-1.7 2.7l-4.4 2c-.9.4-1.7-.1-1.8-1l-.1-4.4c0-1.1.7-2.1 1.7-2.6l4.2-2.1zm12-14c.8-.3 2.2-.3 2.3.8l-.2 4.2c-.1 1.3-1.3 2.2-2.4 2.7l-5.9 2.4c-.8.3-2.2.3-2.3-.8l.3-4.3c.2-1.2 1.3-2.1 2.4-2.6l5.8-2.4zm-11.7 4.7c.8-.3 2.2-.3 2.2.8l-.3 4.3c-.1.8-.7 1.5-1.3 2-.3.3-.6.5-.9.7l-4.3 2.1c-.8.4-1.6 0-1.7-.9v-4.2c.1-1.1.7-2 1.7-2.5l3.1-1.6 1.5-.7zm-8.9 4.4c.8-.4 1.6-.1 1.6.8v4.2c0 1-.7 2-1.6 2.6l-3.9 2c-.8.4-1.5-.1-1.5-.9v-4.1c0-1 .6-2 1.5-2.5l3.9-2.1zM37 75.1c.8-.3 2.1-.3 2.2.7v4c-.1 1.2-1.2 2-2.3 2.5l-5.7 2.2c-.8.3-2.2.3-2.2-.7l.2-4c.1-1.2 1.2-2 2.3-2.5l5.5-2.2zm-11.2 4.5c.8-.3 2.1-.4 2.1.7l-.2 4c-.2 1.2-1.3 2.1-2.4 2.6l-2 .8-2.7 1.4c-.8.4-1.6.1-1.6-.8l.1-4c.1-1 .8-1.9 1.7-2.5l1.5-.8 3.5-1.4zm57.7-27.2c1.1-.1 2.5.2 3 1.3.3.7.5 1.4.8 2.1.7 1 1.3 2 1.9 3 .7 1.4-.4 2-1.7 2.1l-4.4-.1-2.9.6c-1.1.1-2.5-.1-3.1-1.2-.6-1.4-1.2-2.8-1.6-4.3-.3-1.3.8-2 1.9-2.3l6.1-1.2zm-12.7 2.5c.4-.1.8-.1 1.2-.1.8.1 1.7.6 2 1.3.7 1.4 1.2 2.9 1.6 4.3.3 1.2-.9 1.9-2 2.1-2.3.4-4.6.8-6.9 1.1-.6.1-1.2 0-1.8-.1-.6-.1-1.2-.4-1.4-1-.4-1.3-.7-2.7-.9-4-.1-1 .8-1.6 1.6-2.1 2.6-.4 4.6-1 6.6-1.5zm-1.4-8.2c.8-.2 2.1-.4 2.3.6.1.6.1 1.2.2 1.8.1.7.4 1.3.5 2 .2 1.2-.9 2-2 2.3L66 54.6l-1.5.5c-.7.2-2.2.4-2.3-.7-.2-1.2-.2-2.4-.3-3.6 0-1.1 1-1.8 2-2.2l5.5-1.9zm-11 4c.8-.3 2.1-.4 2.3.6l.3 3.6c0 1.1-1.1 1.9-2.1 2.3l-5.4 2c-.8.3-2.1.4-2.2-.6l-.2-3.6c0-1.1 1.1-1.8 2.1-2.2l5.2-2.1zm20.5 29.8c1.2-.1 4-.7 4.6.7.4 1.1.6 2.3.4 3.5-.2 1.7-3.2 2.2-4.5 2.6l-7 1.9c-1 .2-2.9.5-3.2-.8-.2-1.3-.4-2.6-.3-4 0-1.4 1.7-2 2.8-2.3l6.3-1.5.9-.1zm14.2-9.6c1 0 2.4 0 2.9 1s.9 2 1.1 3c.2 1-1.2 1.4-1.9 1.6-2.2.4-4.5.8-6.7 1.2-1.1.1-3.1.3-3.8-.8-.6-1.1-1.1-2.3-1.5-3.5-.4-1.3 2-1.6 2.8-1.8 2.3-.2 4.7-.4 7.1-.7zm-16.4 1.6c.5-.1 1.1-.1 1.6 0 .9.1 1.9.3 2.5 1.1.7 1.1 1.4 2.3 1.6 3.6.3 1.5-2.9 1.9-3.9 2l-.7.1-6.4 1.5c-1 .2-2.8.3-3.3-.9-.4-1.3-.7-2.6-.8-3.9-.1-1.4 1.6-1.9 2.6-2.1l6.8-1.4zm-14.8 2.8c1.1-.2 3.2-.2 3.6 1 .5 1.3.7 2.6.8 3.9 0 1.4-1.8 2-3 2.3l-4.7 1-3.3.9c-1 .2-2.3.4-3-.5l-.2-4.5c.1-.8.6-1.5 1.3-2 .4-.2.8-.3 1.2-.5l5.1-1.3c.7 0 1.5-.1 2.2-.3zm-13.4 3.9c.8-.3 2.2-.3 2.3.8l.1 4.1c-.1 1.2-1.2 2.1-2.3 2.6l-5.9 2.2c-.9.3-2.3.3-2.3-.8l.1-4.2c.1-1.2 1.2-2.1 2.3-2.5l5.7-2.2zm40-16.6c1.4.1 3 .4 3.8 1.6.8 1.2 1.4 2.5 2 3.8.4 1.1-1 1.5-1.8 1.7-2.4.2-4.9.5-7.3.6-1.6 0-3.6-.1-4.8-1.4-.3-.4-.6-.7-.9-1.1-.3-.9-.6-1.9-.8-2.9-.2-1.2 1-1.8 1.9-2.1.4-.1.9-.2 1.3-.3 2.3.1 4.4.1 6.6.1zm-14.4 1.5c1.1-.1 2.7 0 3.1 1.1.5 1.2.9 2.6 1.2 3.9.2 1.2-1.1 1.8-2.1 2.1l-6.8 1.3c-1.1.1-2.9.1-3.4-1.1-.5-1.3-1-2.7-1.3-4-.3-1.3 1.3-1.9 2.4-2.1l6.9-1.2zM60 66.7c.9-.2 2.2-.2 2.8.6.8 1.7 1.3 3 1.5 4.4.3 1.4-1.6 1.9-2.8 2.2l-1.5.2-5.7 1.5c-1.2.2-2.4.1-2.4-.8-.1-1.3-.1-2.6-.1-3.9.1-1.2 1.1-1.9 2.2-2.4l3.1-1.1 2.9-.7zm-11.7 4c.8-.3 2.1-.3 2.3.7l.1 3.9c-.1 1.2-1.1 2-2.2 2.5L42.8 80c-.8.3-2.2.3-2.3-.7v-3.9c.1-1.2 1.1-2 2.2-2.4l5.6-2.3zM59 58.5c.8-.2 2.1-.3 2.3.7.1.4 0 .7.1 1.1.2.9.5 1.9.6 2.8.2 1.2-1.2 1.9-2.3 2.2l-1.7.4-4 1.5c-.8.2-2.1.3-2.3-.7l-.2-3.7c.1-1.1 1.1-1.9 2.1-2.3l5.4-2zm-11 4.1c.8-.3 2.1-.4 2.2.6l.2 3.7c-.1 1.1-1.1 1.9-2.2 2.4l-5.5 2.1c-.8.3-2.1.4-2.2-.7V67c.1-1.1 1.1-1.9 2.1-2.3l5.4-2.1zm-10.9 4.3c.7-.3 2.1-.4 2.2.6v3.7c-.1 1.2-1.2 1.9-2.2 2.4l-5.5 2.2c-.7.3-2.1.4-2.1-.7l.1-3.8c.1-1.1 1.1-1.9 2.2-2.4l5.3-2zm10.6-12c.7-.3 2-.4 2.2.6L50 59c0 1.1-1.1 1.9-2.1 2.3l-5.3 2.1c-.7.3-2 .4-2.2-.6l-.1-3.6c.1-1.1 1.1-1.8 2.1-2.3l5.3-2zm31.8 33.8c1.2-.2 4-1 4.2.4 0 1.5-.4 2.9-.9 4.2-.7 1.6-1.9 2.2-2.9 2.6l-7.5 2.4c-.9.2-3.1.7-3.2-.8-.1-1.4 0-2.9.2-4.3.2-1.5 1.9-2.2 3.1-2.6l7-1.9zm-41.9 103c1.1-.1 1.9.9 2.2 1.8.5 1.6 1.1 3.3 1.6 4.9.2.8.1 2-.9 2.1-1.2.1-2.5.2-3.7.2-1 0-1.7-.9-2.1-1.8-.5-1.5-1-3-1.5-4.6-.2-.7-.1-1.9.8-2 1.1-.3 2.4-.5 3.6-.6zm-7.1 1c1.3.4 1.7 1 1.9 1.7l1.5 4.5c.2.7.3 1.7-.6 1.9l-3.5.2c-1 0-1.7-.8-2-1.6l-1.6-4.3c-.2-.7-.2-1.7.7-1.9l3.6-.5zm-7 .7c1-.1 1.7.9 1.9 1.6l1.6 4.3c.2.6.3 1.7-.6 1.8l-3.1.1c-.9 0-1.6-.9-1.8-1.6l-1.6-4.1c-.2-.6-.3-1.7.6-1.8l3-.3zm19.9-14.2c1.1-.1 2.1.6 2.4 1.7.4 1.8.7 3.5 1.1 5.2.2.9 0 2.1-1.1 2.5-1.5.2-3 .6-4.5.7-1.1.1-1.9-.8-2.3-1.7l-1.3-4.9c-.2-1 .2-2 1.2-2.4l4.5-1.1zm-8.5 2.1c1-.2 1.7.7 2 1.6l1.2 4.9c.2.9 0 2-1 2.2l-3.6.6c-1 .1-1.6-.8-1.8-1.7l-.4-1.8-.9-2.9c-.2-.9 0-1.9 1-2.2h.6l2.9-.7zm-7.5 1.5c1.1-.1 1.8.8 2.1 1.6l1.4 4.6c.2.8.1 1.9-.9 2l-3.5.4c-1 .1-1.7-.9-2-1.6l-1.4-4.4c-.2-.7-.2-1.8.8-2l3.5-.6zm-7 1.2c1-.1 1.6.9 1.9 1.6l1.4 4.4c.2.7.2 1.8-.7 1.9l-3.1.3c-.9.1-1.5-.9-1.8-1.6l-1.4-4.2c-.2-.6-.3-1.7.6-1.9l3.1-.5zm-6 .9c.9-.1 1.5.9 1.7 1.5l1.4 4.2c.2.6.3 1.7-.5 1.8l-2.6.2c-.8 0-1.4-1-1.6-1.5l-1.4-4c-.2-.5-.4-1.6.5-1.8l2.5-.4zm58.4-25.1c1.2-.2 2.4.3 2.8 1.5l1.1 5.3c.2 1.4-.8 2.4-2 2.8l-6.1 1.3c-1.2.2-2.4-.4-2.8-1.7-.3-1.7-.7-3.5-.8-5.3-.1-1.3.9-2.2 2-2.6 1.9-.5 3.8-.9 5.8-1.3zm-21.6 5.9c1-.2 1.8.4 2 1.4l.6 5.1c.1 1.1-.5 2.3-1.6 2.7l-4.4 1.3c-.4.1-.7 0-1-.1-.6-.3-1-.8-1.2-1.5l-1-5c-.1-1.1.5-2.1 1.6-2.5l4.9-1.4h.1zm-9.9 2.9c1-.2 1.9.4 2.2 1.4l1 4.9c.2 1.1-.4 2.2-1.5 2.5l-4.4 1.1c-1 .2-1.8-.6-2-1.5l-.8-4.5c-.3-1.2.2-2.3 1.2-2.6l4.3-1.3zm-8.8 2.3c1.1-.2 1.9.6 2.2 1.6l.3 1.3.6 3.5c.1.9-.2 2-1.1 2.3l-2.1.6-1.7.3c-1 .1-1.8-.7-2.1-1.6l-1.3-4.7c-.2-.9.1-2 1.1-2.3l4.1-1zm-7.9 1.9c1-.2 1.8.8 2 1.6l1.3 4.7c.2.8.1 1.9-1 2.2l-3.5.6c-1 .1-1.7-.8-1.9-1.6l-1.3-4.5c-.2-.8-.1-1.9.9-2.1l3.5-.9zm-6.9 1.6c1-.2 1.6.8 1.8 1.5l1.3 4.5c.2.7.2 1.8-.8 2l-3.1.5c-.9.1-1.5-.9-1.7-1.5l-1.3-4.3c-.2-.7-.2-1.8.7-2l3.1-.7zm-6 1.3c.9-.2 1.4.9 1.6 1.5l1.3 4.3c.2.6.3 1.7-.6 1.9l-2.6.4c-.8.1-1.3-.9-1.5-1.5l-1.3-4.1c-.2-.6-.3-1.7.5-1.9l2.6-.6zm72.7-30.9c1.2-.3 2.6 0 2.9 1.3l.6 5.4c.1 1.5-1.2 2.6-2.5 3l-6.5 1.8c-1.2.3-2.5-.1-2.8-1.5-.2-1.8-.3-3.5-.4-5.3 0-1.4 1.1-2.4 2.4-2.9l6.3-1.8zm-12.6 3.9c1-.2 2.4.1 2.5 1.3.2 1.7.3 3.5.4 5.3.1 1-.5 1.8-1.2 2.4-.3.2-.6.3-.9.4-1.9.4-3.8.9-5.7 1.3-1 .2-2.3-.2-2.4-1.3-.1-.6-.1-1.3-.2-1.9-.1-1-.2-1.9-.2-2.9 0-1.3 1-2.3 2.1-2.8l5.6-1.8zm-22.7 6.5c1.2-.2 2.2.4 2.6 1.6l.4 1.7.6 3.1c.2 1.2-.7 2.1-1.8 2.5l-5.1 1.4c-1 .2-2-.2-2.2-1.3l-.1-.7-1-4.3c-.2-1.2.4-2.2 1.5-2.6l5.1-1.4zm-10 2.7c1.1-.2 2 .5 2.3 1.5l1.1 4.9c.1 1.3-.5 2.2-1.5 2.6l-1.6.5-2.8.7c-1.1.2-1.9-.6-2.2-1.6l-1.1-4.9c-.2-1.1.3-2.1 1.3-2.5l4.5-1.2zm-9 2.5c1.1-.3 1.9.6 2.1 1.5l1.1 4.9c.2.9-.1 2.1-1.2 2.4l-4 1c-1.1.2-1.8-.7-2-1.5l-1.1-4.8c-.2-.9.1-2 1.1-2.4l4-1.1zm-7.9 2.2c1-.2 1.7.7 1.9 1.5l1.1 4.7c.2.8 0 2-1 2.3l-3.5.8c-1 .2-1.6-.8-1.8-1.5l-1.1-4.6c-.2-.8 0-1.9.9-2.2l3.5-1zm-6.9 2c1-.2 1.5.8 1.7 1.5l1.1 4.5c.2.7.1 1.9-.8 2.1l-3.1.7c-.9.2-1.5-.9-1.6-1.5l-1.1-4.4c-.2-.7-.1-1.8.8-2.1l3-.8zm-6 1.8c.9-.2 1.4.9 1.5 1.4l1.1 4.4c.2.7.2 1.8-.7 2l-2.6.6c-.8.1-1.3-.9-1.5-1.5L6 169.1c-.1-.6-.2-1.7.6-2l2.7-.7zm73.7-33c1.3-.3 2.7.1 3.1 1.5l.6 2.9.1 2.4c0 1.4-1.3 2.4-2.5 2.8l-6.4 1.9c-1 .3-2.4 0-2.5-1.2l-1-5.5c-.2-1.4.9-2.5 2.2-3l6.4-1.8zm-25 7.2c1.3-.3 2.4.3 2.7 1.5l1 5.4c.2 1.2-.6 2.4-1.9 2.8l-5.6 1.5c-1.2.3-2.3-.4-2.6-1.5l-1-5.3c-.2-1.2.5-2.4 1.8-2.8l5.6-1.6zm-11 3.3c1.2-.3 2.2.4 2.5 1.5l1 5.2c.2 1.1-.5 2.3-1.7 2.7l-5 1.4c-1.2.3-2.1-.5-2.4-1.5l-1-5.1c-.2-1.1.4-2.3 1.6-2.7l5-1.5zM37 147c1.1-.3 2 .5 2.3 1.5l1 5.1c.2 1.1-.3 2.2-1.5 2.6l-4.5 1.3c-1.1.3-1.9-.6-2.2-1.5l-.9-4.9c-.2-1 .3-2.2 1.4-2.6L37 147zm-8.9 2.8c1.1-.3 1.9.6 2 1.4l.9 4.9c.2 1-.2 2.1-1.3 2.5l-4 1.2c-1.1.3-1.8-.7-1.9-1.5l-.9-4.8c-.1-.9.2-2.1 1.2-2.4l4-1.3zm-7.9 2.6c1-.3 1.7.6 1.8 1.4l.9 4.7c.2.9-.1 2-1.1 2.4l-3.5 1c-1 .2-1.6-.7-1.7-1.4l-.9-4.6c-.1-.8.1-1.9 1-2.3l3.5-1.2zm-6.9 2.4c.9-.3 1.5.7 1.6 1.4l.9 4.6c.1.8 0 1.9-.9 2.2l-3 .9c-.9.2-1.4-.8-1.6-1.4l-.9-4.4c-.1-.8 0-1.8.8-2.2l3.1-1.1zm42.8-25.7c1.2-.4 2.4.2 2.6 1.4l.9 5.3c.2 1.2-.7 2.4-1.9 2.8l-5.5 1.7c-1.2.3-2.3-.3-2.5-1.4l-.8-5.2c-.1-1.2.6-2.4 1.8-2.8l5.4-1.8zm-10.9 3.6c1.2-.4 2.2.3 2.4 1.4l.8 5.2c.1 1.2-.5 2.3-1.7 2.7l-5 1.6c-1.2.3-2.1-.4-2.3-1.4l-.8-5c-.1-1.1.5-2.3 1.6-2.7l5-1.8zm-9.9 3.4c1.1-.3 2 .4 2.2 1.4l.8 5c.1 1.1-.4 2.2-1.5 2.6l-4.5 1.5c-1.1.3-1.9-.5-2.1-1.4l-.8-4.9c-.1-1 .4-2.2 1.5-2.6l4.4-1.6zm-8.9 3.2c1.1-.3 1.8.5 2 1.3l.8 4.9c.1 1-.3 2.1-1.4 2.5l-4 1.3c-1 .3-1.7-.6-1.9-1.4l-.7-4.7c-.1-1 .3-2.1 1.3-2.5l3.9-1.4zm-7.8 3c1-.3 1.6.6 1.8 1.3l.7 4.7c.1.9-.2 2-1.2 2.4l-3.5 1.2c-1 .3-1.5-.7-1.7-1.4L14 146c-.1-.9.1-2 1.1-2.4l3.5-1.3zM69 112.1c1.1-.4 3-.5 3 1-.2 2.1-.5 4.1-.7 6.1 0 .3-.1.5-.2.8-.4 1.3-1.4 2.3-2.7 2.8l-4.5 1.8-2.1.7c-1.2.3-2.4-.2-2.6-1.4l-.3-2.2.2-3.4c.2-1.5 1.4-2.7 2.8-3.4l4.6-1.8 2.5-1zm-14.2 5.7c1.2-.4 2.6-.1 2.6 1.2l-.1 1.8.5 3.6c.1 1.3-.7 2.4-2 2.9l-5.5 1.8c-1.1.3-2.2-.3-2.4-1.4l-.7-5.1c-.1-1.2.7-2.3 1.9-2.8l4.5-1.6 1.2-.4zm-11.1 4c1.1-.4 2.1.2 2.3 1.3l.7 5.1c.1 1.2-.6 2.3-1.8 2.8l-5 1.7c-1.1.3-2-.3-2.2-1.3l-.6-5c-.1-1.1.6-2.2 1.7-2.7l4.9-1.9zm-9.8 3.7c1.1-.4 1.9.3 2.1 1.3l.6 4.9c.1 1.1-.5 2.2-1.6 2.7l-4.5 1.6c-1.1.3-1.9-.4-2-1.3l-.6-4.8c-.1-1.1.4-2.2 1.5-2.6l4.5-1.8zM63 174.1c1.3-.2 2.4.6 2.8 1.8.4 2 .9 3.9 1.3 5.9.2 1.3-.5 2.5-1.7 2.9l-5.5 1.1c-1.3.1-2.3-.7-2.7-1.9l-1.2-5.7c-.1-1.2.5-2.4 1.6-2.8l5.4-1.3zm-10.5 2.7c1.2-.2 2 .6 2.3 1.7.4 1.9.8 3.8 1.2 5.6.2 1.1-.2 2.3-1.4 2.7-1.5.3-3 .7-4.5.9-1.1.2-1.9-.9-2.2-1.8-.4-1.8-.8-3.5-1.1-5.3-.1-1 .3-2.2 1.3-2.6l4.4-1.2zm8.7-14.2c1.1-.2 2.2.3 2.4 1.4.2 1.8.5 3.5.8 5.3.1 1.3-.7 2.4-1.9 2.8l-5.4 1.4c-1.1.2-2.1-.5-2.4-1.6-.2-1.7-.5-3.4-.6-5.1-.1-1.2.8-2.2 1.8-2.6 1.9-.6 3.6-1.1 5.3-1.6zm-1-10.4c.8-.2 1.7 0 2.3.6.2.3.3.5.3.9l.1 2.5c0 .7.1 1.5.2 2.2 0 1.2-1 2.1-2 2.5l-5.1 1.5c-.8.2-1.6-.1-2-.9l-.8-3.6-.3-1.6c-.1-1.2.6-2.3 1.7-2.7l5.6-1.4zM70 137c1.2-.3 2.6.2 2.9 1.5L74 144c-.1 1.4-1.2 2.4-2.3 2.8l-3.2 1.1-2.6.7c-1.2.3-2.5-.3-2.8-1.5l-1-5.4c-.1-1.3.8-2.4 2-2.9L70 137zm13.9-18.7c.5-.2 1-.2 1.6-.2.6.1 1.1.3 1.3.9.1 2.8-.1 5.1-.3 7.3-.4 2-1.7 3.6-3.6 4.7l-1.7.7-5 1.4c-1.3.2-2.6-.3-3-1.5l-.5-3v-2.9c.1-.9.5-1.7 1.1-2.5.6-.6 1.3-1.1 2.1-1.5l8-3.4zM68.3 125c1.3-.5 2.7 0 2.8 1.4v1.6l.7 4.1c.1 1.3-.8 2.5-2.1 2.9l-6 1.8c-1.2.3-2.5-.3-2.7-1.5l-.9-5.3c-.1-1.3.7-2.4 2-2.9l4.2-1.3 2-.8zm34.6-28.1c.8-.3 2.3-.6 2.3.7-.1 1.9-.5 3.9-1 5.8-.6 2.2-2.3 4-4.1 5.5-2.4 1-4.8 2.1-7.2 3.1-1 .3-2.9.5-2.8-1 .1-1.8.4-3.7.6-5.5.1-.6.4-1.2.8-1.6 1.1-1.1 2.2-2 3.5-2.8 2.6-1.5 5.2-2.9 7.9-4.2zm-16.8 8.3c1-.3 2.9-.5 2.9.9-.1 1.9-.4 3.8-.8 5.7-.5 1.9-2.2 3.3-4 4.2l-1 .5-7 3c-1.2.4-3 .4-3-1.1l.6-6c.2-1.2 1.1-2.2 2.2-2.9.5-.3.9-.5 1.4-.8l8.7-3.5zm-39.8 85.2c1.1-.1 1.8.9 2.2 1.9.5 1.8 1.1 3.5 1.7 5.2.2.9.2 2-.9 2.2-1.8.2-3.2.3-4.5.4-1.1 0-2-.9-2.4-1.8l-1.6-4.9c-.2-.9.1-2 1.1-2.3l4.3-.6.1-.1z" clip-rule="evenodd"/><path fill="#fff" d="M267.6 215.6v-74.1c0-.5-.4-.9-1.3-1.2-.8-.3-1.8-.4-2.8-.4-.9 0-1.8.1-2.7.4-.8.3-1.3.7-1.3 1.2v74.1c0 5.8-1.4 11.1-4.1 16.2-2.7 5-6.9 8.7-12.4 11-1.5.5-2.8.9-4.1 1.2-1.3.3-2.6.5-4.1.7-.5.1-.9.5-1 1.3-.2.8-.2 1.6-.2 2.5.1.9.2 1.7.5 2.4s.7 1.1 1.1 1.1c1.6 0 3.3-.2 5.2-.7 1.9-.5 3.6-1 5-1.5 3.5-1.4 6.5-3.2 9.3-5.7 2.7-2.4 5-5.1 6.9-8.2 1.9-3 3.3-6.3 4.3-9.7 1.2-3.4 1.7-6.9 1.7-10.6zm89-5.8v-38.5l-.6-.9c-.2-4.9-1.3-9.5-3.4-13.9-2-4.3-4.8-8.1-8.2-11.3-3.4-3.2-7.3-5.7-11.7-7.5-4.4-1.8-9.1-2.7-14-2.7-5.1 0-9.9 1-14.4 3s-8.5 4.7-11.9 8c-3.4 3.3-6.1 7.3-8 11.9-1.9 4.6-2.9 9.4-2.9 14.5 0 6.1 1.2 11.5 3.5 16.2 2.4 4.8 5.4 8.8 9.3 12 3.8 3.2 8.2 5.7 13 7.2 4.9 1.6 9.8 2.1 14.8 1.7 5-.4 9.8-1.9 14.5-4.4 4.7-2.5 8.8-6.2 12.4-11.1v15.9c0 .5.4.9 1.2 1.2.8.3 1.6.4 2.6.4.9 0 1.8-.1 2.6-.4.9-.4 1.2-.8 1.2-1.3zm-7.8-37.5c0 4.1-.8 8-2.4 11.6-1.6 3.7-3.7 6.9-6.4 9.6-2.7 2.7-5.9 4.9-9.6 6.4-3.7 1.6-7.5 2.4-11.6 2.4s-8-.8-11.6-2.4c-3.7-1.6-6.8-3.7-9.5-6.4s-4.8-5.9-6.4-9.6c-1.6-3.7-2.4-7.5-2.4-11.6 0-4.2.8-8.1 2.4-11.7 1.6-3.6 3.7-6.8 6.4-9.5s5.9-4.9 9.5-6.4c3.6-1.6 7.5-2.4 11.7-2.4 4.1 0 8 .8 11.6 2.4 3.7 1.6 6.8 3.7 9.5 6.4s4.8 5.9 6.4 9.6c1.6 3.6 2.4 7.5 2.4 11.6zm52.6 37.5c0-.3.1-.8.2-1.5s.2-1.3.2-2-.1-1.2-.2-1.7c-.2-.5-.4-.8-.9-.9-1.5-.2-2.8-.4-4.1-.7-1.3-.3-2.6-.7-4.1-1.2-5.5-2.3-9.7-6-12.5-11-2.8-5-4.2-10.4-4.2-16.2v-74.1c0-.5-.3-.9-.8-1.1-.5-.2-1.1-.3-1.7-.3-.6 0-1.3 0-2 .1s-1.2.1-1.5.1c-.7 0-1.1.4-1.1 1.3v74.1c0 4.7.7 9.2 2.1 13.5 1.4 4.3 3.5 8.1 6.2 11.4 2.7 3.3 6 6 9.9 8 3.9 2 8.3 3.2 13.2 3.5l1.3-1.3zm74.7 0v-38.5l-.6-.9c-.2-4.9-1.3-9.5-3.4-13.9-2-4.3-4.8-8.1-8.2-11.3-3.4-3.2-7.3-5.7-11.7-7.5-4.4-1.8-9.1-2.7-14-2.7-5.1 0-9.9 1-14.4 3s-8.5 4.7-11.9 8c-3.4 3.3-6.1 7.3-8 11.9-1.9 4.6-2.9 9.4-2.9 14.5 0 6.1 1.2 11.5 3.5 16.2s5.4 8.8 9.3 12c3.8 3.2 8.2 5.7 13 7.2 4.9 1.6 9.8 2.1 14.8 1.7 5-.4 9.8-1.9 14.5-4.4 4.7-2.5 8.8-6.2 12.4-11.1v15.9c0 .5.4.9 1.2 1.2.8.3 1.6.4 2.6.4s1.8-.1 2.6-.4c.8-.4 1.2-.8 1.2-1.3zm-7.8-37.5c0 4.1-.8 8-2.4 11.6-1.6 3.7-3.7 6.9-6.4 9.6-2.7 2.7-5.9 4.9-9.6 6.4-3.7 1.6-7.5 2.4-11.6 2.4s-8-.8-11.6-2.4c-3.7-1.6-6.8-3.7-9.5-6.4s-4.8-5.9-6.4-9.6c-1.6-3.7-2.4-7.5-2.4-11.6 0-4.2.8-8.1 2.4-11.7 1.6-3.6 3.7-6.8 6.4-9.5s5.9-4.9 9.5-6.4c3.6-1.6 7.5-2.4 11.7-2.4 4.1 0 8 .8 11.6 2.4 3.7 1.6 6.8 3.7 9.5 6.4s4.8 5.9 6.4 9.6c1.6 3.6 2.4 7.5 2.4 11.6zm-114.2 79.4h-4.9v-22.2c3.1-.1 5.1-.2 5.9-.2 3.2 0 5.8.9 7.7 2.8 1.9 1.9 2.8 4.4 2.8 7.5 0 8.1-3.8 12.1-11.5 12.1zm-1-18.7v15.2c.6.1 1.3.1 2.1.1 2 0 3.5-.7 4.7-2.2 1.1-1.4 1.7-3.5 1.7-6.1 0-4.7-2.2-7.1-6.6-7.1-.5 0-1.1 0-1.9.1zm37.8 11.8h-11.6c.1 1.3.5 2.3 1.3 3 .8.7 1.9 1.1 3.3 1.1 1.7 0 3-.5 3.9-1.3l1.5 2.9c-1.3 1.1-3.3 1.6-6 1.6-2.5 0-4.4-.7-5.9-2.2-1.4-1.4-2.2-3.5-2.2-6.1 0-2.6.8-4.6 2.4-6.2 1.6-1.6 3.5-2.4 5.7-2.4 2.4 0 4.2.7 5.7 2.1s2.1 3.2 2.1 5.4c.1.4 0 1.1-.2 2.1zm-11.5-2.9h8c-.3-2.4-1.6-3.6-3.9-3.6-2.2.1-3.6 1.3-4.1 3.6zm21.3 8.8l1.3-3c1.1.9 2.4 1.3 3.8 1.3 1.5 0 2.2-.5 2.2-1.6 0-.6-.2-1.1-.7-1.5-.4-.4-1.3-.9-2.6-1.4-2.8-1.2-4.2-2.8-4.2-4.9 0-1.4.5-2.5 1.6-3.3 1.1-.8 2.4-1.2 4.1-1.2 1.7 0 3.3.4 4.8 1.1l-1.1 2.9c-.8-.7-2-1.1-3.5-1.1-1.3 0-2 .5-2 1.6 0 .4.2.8.7 1.1.4.3 1.4.8 2.8 1.3 1.4.6 2.5 1.2 3.1 2 .6.8.9 1.8.9 2.9 0 1.5-.6 2.7-1.7 3.6-1.1.9-2.6 1.3-4.6 1.3-1.1 0-1.9-.1-2.6-.3-.4.1-1.3-.3-2.3-.8zm22.9 1v-13.1h-2.1v-3.1h5.9v16.2h-3.8zm1.9-22.5c.6 0 1.1.2 1.6.6.4.4.6.9.6 1.6 0 .6-.2 1.1-.6 1.6-.4.4-.9.6-1.6.6-.6 0-1.1-.2-1.6-.6-.4-.4-.6-.9-.6-1.6 0-.6.2-1.1.6-1.6.5-.4 1-.6 1.6-.6zm12.6 26.7l2.4-3c1.3 1.2 2.8 1.8 4.4 1.8 1.1 0 2-.2 2.7-.5.7-.3 1.1-.8 1.1-1.3 0-1-.8-1.4-2.3-1.4-.4 0-1.1.1-1.9.2-.8.1-1.5.2-1.9.2-2.6 0-3.9-.9-3.9-2.8 0-.5.2-1.1.7-1.6.4-.5.9-.9 1.5-1.1-1.8-1.2-2.8-2.9-2.8-5.1 0-1.7.6-3.2 1.9-4.3 1.3-1.1 2.8-1.7 4.7-1.7 1.5 0 2.7.3 3.7.8l1.5-1.7 2.6 2.4-1.8 1.3c.6.9.9 2.1.9 3.4 0 1.8-.6 3.3-1.7 4.4-1.1 1.1-2.5 1.7-4.3 1.7-.3 0-.6 0-1.1-.1l-.6-.1c-.1 0-.3.1-.8.3-.5.2-.7.4-.7.7 0 .4.3.6 1 .6.3 0 .8-.1 1.6-.2.7-.2 1.4-.2 1.9-.2 3.7 0 5.5 1.5 5.5 4.4 0 1.6-.7 2.9-2.2 3.9-1.5.9-3.3 1.4-5.3 1.4-2.6-.2-4.8-.9-6.8-2.4zm3.8-14.7c0 1 .3 1.7.8 2.3.5.6 1.2.9 2.1.9.9 0 1.6-.3 2.1-.8.5-.6.7-1.3.7-2.3 0-.8-.3-1.5-.8-2.1-.5-.6-1.2-.8-2-.8-.9 0-1.6.3-2.1.8-.6.4-.8 1.1-.8 2zm30.9 10.5v-9.4c0-1.4-.3-2.4-.8-3-.5-.6-1.4-1-2.6-1-.6 0-1.2.2-1.8.5-.6.3-1.1.7-1.5 1.2v11.7h-3.8v-16.2h2.7l.7 1.5c1-1.2 2.6-1.8 4.6-1.8 1.9 0 3.5.6 4.6 1.7 1.1 1.2 1.7 2.8 1.7 4.8v10h-3.8z"/></svg>